<mxfile modified="2023-10-11T08:09:28.407Z" host="app.diagrams.net" agent="Mozilla/5.0 (Windows NT 10.0; Win64; x64) AppleWebKit/537.36 (KHTML, like Gecko) Chrome/117.0.0.0 Safari/537.36" etag="fOm8_8unqys7QAbWIdL0" version="22.0.4" type="github">
  <diagram id="WI9T0HZ2pTsCkuznbFz-" name="Page-1">
    <mxGraphModel dx="1285" dy="718" grid="1" gridSize="10" guides="1" tooltips="1" connect="1" arrows="1" fold="1" page="1" pageScale="1" pageWidth="1169" pageHeight="827" math="0" shadow="0">
      <root>
        <mxCell id="0" />
        <mxCell id="1" parent="0" />
        <mxCell id="v-qFhbS9O7U46pDk4-8g-6" value="Gsuite" style="image;aspect=fixed;html=1;points=[];align=center;fontSize=12;image=img/lib/azure2/identity/Enterprise_Applications.svg;" parent="1" vertex="1">
          <mxGeometry x="420" y="90" width="64" height="64" as="geometry" />
        </mxCell>
        <mxCell id="v-qFhbS9O7U46pDk4-8g-7" value="" style="endArrow=classic;html=1;rounded=0;entryX=-0.03;entryY=0.439;entryDx=0;entryDy=0;entryPerimeter=0;exitX=0.982;exitY=0.444;exitDx=0;exitDy=0;exitPerimeter=0;" parent="1" source="v-qFhbS9O7U46pDk4-8g-22" target="v-qFhbS9O7U46pDk4-8g-6" edge="1">
          <mxGeometry width="50" height="50" relative="1" as="geometry">
            <mxPoint x="330" y="120" as="sourcePoint" />
            <mxPoint x="380" y="70" as="targetPoint" />
          </mxGeometry>
        </mxCell>
        <mxCell id="v-qFhbS9O7U46pDk4-8g-31" value="" style="edgeStyle=orthogonalEdgeStyle;rounded=0;orthogonalLoop=1;jettySize=auto;html=1;entryX=0.043;entryY=0.564;entryDx=0;entryDy=0;entryPerimeter=0;" parent="1" source="v-qFhbS9O7U46pDk4-8g-13" target="v-qFhbS9O7U46pDk4-8g-18" edge="1">
          <mxGeometry relative="1" as="geometry">
            <mxPoint x="193.89" y="930" as="targetPoint" />
            <Array as="points">
              <mxPoint x="194" y="890" />
              <mxPoint x="346" y="890" />
            </Array>
          </mxGeometry>
        </mxCell>
        <mxCell id="upSLq7r1C17GMmXVNGqP-17" value="Life cycle" style="edgeLabel;html=1;align=center;verticalAlign=middle;resizable=0;points=[];" vertex="1" connectable="0" parent="v-qFhbS9O7U46pDk4-8g-31">
          <mxGeometry x="-0.1379" y="-2" relative="1" as="geometry">
            <mxPoint as="offset" />
          </mxGeometry>
        </mxCell>
        <mxCell id="upSLq7r1C17GMmXVNGqP-4" value="" style="edgeStyle=orthogonalEdgeStyle;rounded=0;orthogonalLoop=1;jettySize=auto;html=1;" edge="1" parent="1" source="v-qFhbS9O7U46pDk4-8g-13" target="v-qFhbS9O7U46pDk4-8g-19">
          <mxGeometry relative="1" as="geometry" />
        </mxCell>
        <mxCell id="upSLq7r1C17GMmXVNGqP-16" value="Life Cycle" style="edgeLabel;html=1;align=center;verticalAlign=middle;resizable=0;points=[];" vertex="1" connectable="0" parent="upSLq7r1C17GMmXVNGqP-4">
          <mxGeometry x="-0.7908" relative="1" as="geometry">
            <mxPoint as="offset" />
          </mxGeometry>
        </mxCell>
        <mxCell id="v-qFhbS9O7U46pDk4-8g-13" value="" style="shape=image;verticalLabelPosition=bottom;labelBackgroundColor=default;verticalAlign=top;aspect=fixed;imageAspect=0;image=https://www.tbvs.be/images/toolbox.png;" parent="1" vertex="1">
          <mxGeometry x="133.89" y="790" width="60" height="60" as="geometry" />
        </mxCell>
        <mxCell id="v-qFhbS9O7U46pDk4-8g-15" value="" style="edgeStyle=orthogonalEdgeStyle;rounded=0;orthogonalLoop=1;jettySize=auto;html=1;" parent="1" source="v-qFhbS9O7U46pDk4-8g-14" target="v-qFhbS9O7U46pDk4-8g-13" edge="1">
          <mxGeometry relative="1" as="geometry" />
        </mxCell>
        <mxCell id="v-qFhbS9O7U46pDk4-8g-14" value="" style="shape=image;verticalLabelPosition=bottom;labelBackgroundColor=default;verticalAlign=top;aspect=fixed;imageAspect=0;image=data:image/png,iVBORw0KGgoAAAANSUhEUgAAAOEAAADhCAMAAAAJbSJIAAABa1BMVEX////0sQD//v8UpJofiMr///3zrADkBH78//8UpZn2sAH//v3//f//+/T///z75LPyqQAAf8YAn5NdpNgWhcjL4fPt8fm84+L83aL989787MoAgsjsbqmu0OnnJo224N01l9Hz/PmFtNzjAHek0sxEs6powLrxn8LxswEAhdUWo53hAG0eicgAfsnjrSYAgsVxf5MXn6X1rM/6z4kAe8nkBILfAHIXm6oAn4/tAHzwkbv++Nv55bL6+eD63q/4yWr4x1f515b6pwDxvB71wTrwyl/76b/48s36tyb3z3v8xV/4u0P11If4vDX668Hmy5KWwOPB3O9krNbGvoTIpkXJyLPL4uuUxuL1zXF0ttnd7/T81pe51/OdnYPCqVKImZBMkLQki7rTzrD10eLthbTmRZPxa6z86fb4vdr83+6LtONwtLiGycRLp6Nalpra8e1XvbDpAGUykZeTcpeeY4uxXo09o8CzrL2O1strCPUgAAAS9UlEQVR4nO1dj1/byJUfy5Yy9gghyQpgFBYbA1GMVLdZoA7ZJeTHssmmSTF3JVnv9n40m0BaWrd317v98++9NzLG4N+SMO1HXzYb27HFfPV+zsx7Y8ZSpEiRIkWKFClSpEiRIkWKFClSpEiRIsXNwGAqU/DB47fz8199NT8G8E3L3xrwGS5ULsSMGYwCh5+v9594mmlq48MsaJnMwdJjhrfoloOXnr7UYLieVxgXGfjjwf88+NyX386awCg8PnhW0OSAMwAvMyYK4R/v2fN5PmsSfaEyAfpVOjBhmCiWDsUpoHnLYJDCuGXqquoGZ+9NGqLneRmtoE1ih/Bmui1S5tqLOa6qyqw59QJu+ONMKDWtYBa+WToszU2A0uH++wzQDHVW22fKrVPWpxowLBBB6S7UCT6M8gIfvPRScix45jfsFskQLFDwJyYODNTz5WGUm798oHkFcjpvDLjsLWGpKgY70Eh+pgf8ooXsxy+1jIfa4M0xZS6mIUaFwQ8gQICrMF8xpqN2Tk0ShMafmtIXewbXYxxlBKjslemR/Rxy1dBBScUkNtgDrsMFSni34OfFRLacEFQDVHRJy5CXKbFY/B/Y9WuKpuYBMxRlxnmqruqsZKINFrw5rsSiVSo4mAPTQ4+6xPisnY2A9AOyEMxg5hg3YtEqQ4HLvCigv9FKoPdxXHN6qCr7jQyDJR7Vi3YAes8U9SXF1tds9hGjRKmoOR+v31NZiSYo5nw8th0F38E8ySu8Z/Fqk6GweRM9qheTYkwNXgKXkNEyBo4pTqgGf4FhP7MU62WnwBOawX4FBhnrvTaYIvDmaZ4X52UnBIdxzEGkAJ+XzC/4Bq6d0d6Cj56RtzF0wZYo1s8ncn0VnVgh8x1o7IxyG1xUe02xPhl/xxmmNgUTptczkiFmbBo60lfJ5I8q+0rDmHiozGoBDgR3KIeQjAzByvHyhR+4MaM5BheYzwBDUKMkrg+q+QZnLG+YOqOoD7xe4whe82RWjRRV3sGCEDPSUoNxWlT5MqaM+yogP51HNTXn2Iy0VFcNXD7U5rmSjAwNZVna+aymUCp7HDqa6ef0wyAMLm/hYRJXHwcqe0sMSwkxRA+NDAtLs8q+FSaVqMSVZBjCjdMkwxn5Ut5hyOLNujvAi9Ia+symFzfFsJAyTAwpw6hIGSaPlGFUpAyTR8owKlKGySNlGBUpw+SRMoyKlGHySBlGxewZshtgSEVu/9QMscxjditRwNAMGSayJi0ZeoUZypAnzpBrM2Wosm+J4VueTO2ZaiiC1ryT2UQfawi63JmJu9IkhKIYcmPk7az2gIWQzvyHhLTUEBe7a7Oq/DLYG+wIecGT2ThRGXtKe8xcSUCGqoAfeef4wmD89hcA7/Iruvy0ENGrwIyLXW49gZ0ZhcMdFK2VtXKubg1AUA+CBwh4GL4CP3V/beUkQh10F0LuwBa+ZEnsARsqax35247rOG5uAFzXp799x+953alb7tpJHKOY75R6JLF71yxbjpNDdn4fchK+JA/3wOlhDv85gb8SVU0NfoBKahqKEaeWgvmA/E7KAYwchePQ4J0+/Dp0UJTwRp/e41/+lxXU9um9BC9R9fhBjOwYWreuCH4cuMDOfwDUHAdszB1oi1bgug/gx3K3A/m07nbuiGuVWyzK9u0TrJDXluNjh8AmzqbrOjBGIGdt+8WjlWbz7mD8y78ifgePTvBpc+Xo2Lc6pusE79j09Uxfk5/xYvajXGdHlkM25rj+UWukiZdM6pG89IpgCytlSyq37xan96oHWLma2Z/2432gQhhjomghP9+3is0xWlYNht7A096z3n7B1ho4KrDPnOtzQ508q1N1To40k4mzlkaAVzCKdQgQOSson2DZ1UgNUdjXz7yMljHfXs2sFooWRhPf9Rd0MbGmCazNleVIMWop1+dYsU4BzvoeX1BHyxBc73vTw67fUs/rBjjkHzGM+OCy+OQMuUxnsGovxpRQGGzNgnvuOPUTnC4YbHSdjAETANlOV+jpM1O5qjJepkjplqewRaoJzJilyfoYR0CwpgV24zp+ZaIYViJ9Mp/DFEBQS08HKiu6yDH4Hux7fDGCPw+9jPZ0knGMgco2RjLQqgk/t2RS80eGZjldrcLM/TgAp5WzmoKPXxkGH3utUaf0wYQDGYmyDNR8whmtgqEZq+oLy3giwgUTg4MwipT4udyYILeZe57xMs8LhTdx1yT+aGEAC1qT3G+EgSGjgG3Y5qvL4scSe0ORmevxBNejZhk07bk4u51VuN2ooLlgZYpPC35ALYgZ01vGLgxDxdiqqNil3wogD89ZLZo09oWC3VsqjkAHDS+9kHFQy8zBa/ExhECxUodA6JSnmosZ2OlMbaTmG6wGVdBf4ABh3nOEAcgpDk5QUdaKQSd+8NJ3puxYL7yZU5U468fBSuBO+36wMM2aCN7qp6Ynb73m/SCbSUE2hg7iQd3PWQsQWPpDUDkwfKS0/0YzPbqMeQASNSoxytAQzQCnSmtw3ckJCnQjy3heBLZFZjQz82TpkM5jYZCS/GiB9rtrQ3/912/3X3nUjE/R1VzCcyNEnFN7CF0YKYJWhHUtNdRUoKkVCppmhnjmo4XXn5lDoGnheQrUHPuiNPq3TQphWDjhLRpRGkF56bnmZTJXj/wo/B7SN//Bv411FAhG+sNEutSbAQSuepPxuakZYlfE8mvz2pEt3i8e+L774N/HYVgw38wzlsi5JmsBKikIcPr+FI6HK/DSbzKapvWMuvAfkAk6/zmKIWi2+X4Z2/mTWB9lZcxmivFc6/HSE0+j01sK8myW32Oy9ADPLhlygEvh4GnMCxa9AE+aC97FcinpqkpvD/f35VFX+78LgGHwB3no1XXs7x8ePkbjSER2IVrb4GeCZizXUgRMJC55ZM4WkKE7NFuCVIgbSXZwNXHtor4Qy7Ugq8V0BlMVFAzwFZh+u+9Y/w0OjPgC3p3s9suKBTErSGaLBUaOy6iQTSTUeTIWVlycjCeyeo7AeZk7a4a4LpZYf9HtYAhjSKgH7RYxTKzPDxmCHXZVROBpZfKERU7zrMvgOFeMe9/3Zhh2wXGHcthSqDr5CuRw3DhDHbzah717X/TFvb0PkbZ0+uGmGSr89Kc7W9XqnX6oVqu7d36KeX5xkwwVnRns/m51Z6cvvzvwchVp3odpPowoJqY3yVA3mP6xWiV+/YUYivILHc8WjElbb5IhEOxKr4+iVrsv6jAXjmlMN8lQVZDgDijp1s7HT/c+3buKjzu7VamuOzr/R2PIdUVhn6okqN2900HvP92TUqx+pDXUOHBjDOE3nG11rKx/zFM4WB9YKrqc3bN/MDsUiuCcdBSkg8dO9HszntDADfZxd2enulONawg3JUOYxZ9t7aCF4anR/fNUBU+hgKTuC3C31epZTEOIiyGn8al4FJ/aWdOG7KWMtVVruDMswArBxrY+YFoz3It83kVt/njLtBQIMTzk+Ip7IIZ/lI+3HgFAR0FMfPi6zCeMmVu3LOIrdFYNb6+vn29ewq8Rv6KHf/ol4k/n64vtURc72wV1rn6IOiaJ2LRUYZX1jYaNyIaAh408Ituo5e0aPcw3sg07v7k47FpC30VLfBh1TBIrlp/L1aMx5Hhm7OIGUUM+HeBjyRBeq2W7j4F89ryCa+UDbA2DYvV+lDF1QQzdaCtRMG1tbzQks5rkIcngc0D+MnF4Tuxt+5wNLGO4EyPDppVzcvWFSKsMCju3s6FwLokwm++IrXEhwXz2gnm+kW8PkmGcDE8s38lZ0cpeK3k75JdFTd24hF8havTwz39BbGSloaLe5lGMfREnw8q24zv1afbwJSBItHG8eZCSnT9frPT868K247pWk2zgPgaLR/CgvQ4mm6+hLBub/aI/j9UOmUs7wFPbIZig9J15e4McpN7VPJU165DTBC3Mxdh9yqnlofLtcxs0N1+rNTb61D7FzLDoU5nC1GjbZG+17CrDnUSFdU9N5mzNobVKBROBkCHEe6y04Od2jRR74/olY2Z4FORyvtWa9uMVSdD+K7ETkKp1I4/BsLrNKcrGk5ChKiCZU4RgizZpd3bz2jVjZtjCwm73neBTxEQwoY0sRnL7537/rJ5s+74rjdxgD2n9ArSUtBjst5InZ1tbvVqKpcTqaQSjZX2fKZNX6YB1nVMYtNf7v4Eqvyza2BL8Ps77qnr47Q4oa45RA3KciujdXeOxMsTCHvCmVnOKdUpdtGyMdOD0+3qqCqpHrhz+noeoers8PIpcwXYYnqew8derfSh8N0aGHNXUR18z+RmInG3akMPACPvvXa3hvlawIuR7z8i4PofdYJymjG2IGhAW273fhMRh+rQT2wQRTAB0yc9ZK5PvP6ltyMAaWbvSZ55j0K1DE5fRQJWzvuper6asA8WsvdH93QquiZNCb32emEx/GOxuAHaYs0bM2fphE5O0xirrtw/BZU2n9U5W1iqCy5VE7L0LgdaXJ1vszqcUtFO8FTt3pmHTB1iKfWxh/0Bxci2lkJanVoZr/2a8q1PRalhZC7+GltGqe933qIZuYMyo1brZG4d4QxZb/WkaOv1GKVR1AesxfOto0s8uYu5VIz96XYgnAYmwGXoWQ+GntDix21U+3YCYAeECNOHiNZDr560r74sOcYTlClhhit9OMF5YxFUL8DP5WuM6OdAz0QooHewp1PlUxcX83Q+SNOQHALDEWrZmt/EJsAN9/0AL39WP8e5Ll6kxK/iRjd26rJAN5fulJDBHN1oWNXu5PfRPcXHizs7WnizVoE1RDDhwm9axikMm6FXaotkauGg8DRSKXKhTR2LsPg4OCRtmM+vXhQ7Oy6Vmtu0rs7Kz3XB/Yu/s9EKxYZ6Icwy85OnZ/SrJubr7cECFynQApTmRFLePjTFPXYVgtkievt1nnv5u23dzLtyw3nmDwvYw0JGVbXXwt1/itPi//iafVXFJldxMzOf1Y4miQw1Z5bvofSD6j6hqB3VexWmTHZ4qThk3JNTCYAvFbR9E6AffX+l7gVvxk1zYr3b3oB79N6bf+Uc73dequ3H50csQQNHHtsmg2BJo8MrIU5DXaWIYPtEVlW4L498HsgUuOGJXUl0IBKSovRuk/0P596POizs7oKJx9jx1YLATC4MG9j4d3wVXMKInG8YQMpRiogJclbXWgjr2ruXc+hEk870VeSqEDH56b6t6mWP178Sw+8LWvdNkvoEFRue7OMsAJ2E5xyutkWZADLuRjFWaR/BJ9DEwp3ab2B/WOy1ScOta5Z/3vtiqXmD37zTBvCOf7O7snTJDT6xGa81yL5qYt91ycSiO/xczrnzxWD4t5wJMtGVTsFWsiGH9N6cfzs4ehvg/ugw9PPsQa4y4Ds7uloNOzzIapTMYlmP9mnLKwApf6XwMNBRzhyEzaqUnkZUOqzLozbHCAM+wknNJijBiX/7dH77jSBli5zfxc8LPgQXit98NCWccv0wm7ItR2GqDGApVKCLOXpl+EJSpNMuoboOb8UP4kmHNvXinjyyt3ApnWDJqDOldIjctVNkZtErrrBVwS3F9b9RoLKwU64FVd113iJo6D0KG8l2u47p1t3zUmrAuTYbVPDC86cPJW82jtaF+pliUdngsXc3x2tHKXR3bayc7+WNWDMeyh56IT4DJps4nq9meDUPckjZGhCTwlMSw1umXEpS9QZ4w2dbt7LR0FGAi2ZFhpKGlDGeHlOG4SBnODinDcZEynB26DKNNx8XF7GnGX8p5DZcYRhpaynB26DDMx8Tw5uaGE4AY2hEPylHZz7jJasc0pjihyJvfmOq0iS4EO8fdj/zod940VCZLhezFqF0DG0iwT1XNrIEHoBHDQaVp415Hof2diFdJChs2KljEk3Bpm9UeWlE7O6zbeRDiyJrm4djE4kz7tiU0IVq4B9/os0U6ASpU+xXtGglig4pEIwlx08ZyjluqpExdBTWtYTXMdHXi8Cnyx/moQTUxqCxPZXurU56GC3mRLCxev60MKejna9nG6J24AZ/flMW3SX2faWRwwTYg5QI5Trlz9LOdl0lDwkdjTA248210FPlao8L08WsnOG6KKwpkpFQAf2sdKdWgsVUUYrZWa49xqusFdDqQZhNTbvhzM1uHU4FzkNumLLsfVGM64IM6a2/YVPAVNWNIFIaC5SSbstK7kV+d4KOVc5s6SxqN1qy+e3tc6ExKET1Gfn28gnh1cZNaUDDStJOpu4gTCvYEyaanvG1nN9dXVxeHYHX9fMO2Q4I2mO8UpynfLAyshFsMm7bykuYwNBoNKXFM2jcN7GG4pVl3BzodOsw3sZmpRp0l+aGoUY+FFOAqVg7cdoIXaG/WZOF9dihFal0Dlg07u34Ll56GQbD2ebYBkqwNl2GWHGhjY1W9rbnoIOiYeLXXN7EddrglZjeow02J+6SdpIEeJ6zh0/kwkOfEssDEatdSpEiRIkWKFClSpEiRIkWKFClSpEiRIsU/N/4fKAURNmlus9EAAAAASUVORK5CYII=;" parent="1" vertex="1">
          <mxGeometry x="58.89" y="797.5" width="45" height="45" as="geometry" />
        </mxCell>
        <mxCell id="v-qFhbS9O7U46pDk4-8g-21" value="" style="image;aspect=fixed;html=1;points=[];align=center;fontSize=12;image=img/lib/azure2/identity/Tenant_Properties.svg;" parent="1" vertex="1">
          <mxGeometry x="140" y="93" width="68" height="48" as="geometry" />
        </mxCell>
        <mxCell id="v-qFhbS9O7U46pDk4-8g-36" value="" style="edgeStyle=orthogonalEdgeStyle;rounded=0;orthogonalLoop=1;jettySize=auto;html=1;entryX=-0.005;entryY=0.457;entryDx=0;entryDy=0;entryPerimeter=0;" parent="1" source="v-qFhbS9O7U46pDk4-8g-22" target="v-qFhbS9O7U46pDk4-8g-34" edge="1">
          <mxGeometry relative="1" as="geometry">
            <mxPoint x="295" y="234" as="targetPoint" />
            <Array as="points">
              <mxPoint x="295" y="229" />
            </Array>
          </mxGeometry>
        </mxCell>
        <mxCell id="v-qFhbS9O7U46pDk4-8g-22" value="Azure" style="image;aspect=fixed;html=1;points=[];align=center;fontSize=12;image=img/lib/azure2/identity/Azure_Active_Directory.svg;" parent="1" vertex="1">
          <mxGeometry x="260" y="90" width="70" height="64" as="geometry" />
        </mxCell>
        <mxCell id="v-qFhbS9O7U46pDk4-8g-49" value="" style="edgeStyle=orthogonalEdgeStyle;rounded=0;orthogonalLoop=1;jettySize=auto;html=1;" parent="1" source="v-qFhbS9O7U46pDk4-8g-23" target="v-qFhbS9O7U46pDk4-8g-34" edge="1">
          <mxGeometry relative="1" as="geometry" />
        </mxCell>
        <mxCell id="v-qFhbS9O7U46pDk4-8g-23" value="PIM" style="image;aspect=fixed;html=1;points=[];align=center;fontSize=12;image=img/lib/azure2/identity/PIM.svg;" parent="1" vertex="1">
          <mxGeometry x="540" y="206" width="60" height="68" as="geometry" />
        </mxCell>
        <mxCell id="v-qFhbS9O7U46pDk4-8g-24" value="CA" style="image;aspect=fixed;html=1;points=[];align=center;fontSize=12;image=img/lib/azure2/security/Conditional_Access.svg;" parent="1" vertex="1">
          <mxGeometry x="130" y="270" width="56.00000000000001" height="68" as="geometry" />
        </mxCell>
        <mxCell id="upSLq7r1C17GMmXVNGqP-28" value="" style="edgeStyle=orthogonalEdgeStyle;rounded=0;orthogonalLoop=1;jettySize=auto;html=1;" edge="1" parent="1" source="v-qFhbS9O7U46pDk4-8g-34" target="upSLq7r1C17GMmXVNGqP-27">
          <mxGeometry relative="1" as="geometry">
            <mxPoint x="450" y="440" as="targetPoint" />
          </mxGeometry>
        </mxCell>
        <mxCell id="v-qFhbS9O7U46pDk4-8g-34" value="Global Admin" style="image;aspect=fixed;html=1;points=[];align=center;fontSize=12;image=img/lib/azure2/intune/Azure_AD_Roles_and_Administrators.svg;" parent="1" vertex="1">
          <mxGeometry x="420" y="200" width="64" height="64" as="geometry" />
        </mxCell>
        <mxCell id="v-qFhbS9O7U46pDk4-8g-48" value="" style="edgeStyle=orthogonalEdgeStyle;rounded=0;orthogonalLoop=1;jettySize=auto;html=1;" parent="1" source="v-qFhbS9O7U46pDk4-8g-45" target="v-qFhbS9O7U46pDk4-8g-23" edge="1">
          <mxGeometry relative="1" as="geometry" />
        </mxCell>
        <mxCell id="v-qFhbS9O7U46pDk4-8g-60" value="" style="edgeStyle=orthogonalEdgeStyle;rounded=0;orthogonalLoop=1;jettySize=auto;html=1;entryX=-0.009;entryY=0.546;entryDx=0;entryDy=0;entryPerimeter=0;" parent="1" source="v-qFhbS9O7U46pDk4-8g-57" target="v-qFhbS9O7U46pDk4-8g-56" edge="1">
          <mxGeometry relative="1" as="geometry">
            <mxPoint x="190" y="1070" as="targetPoint" />
            <Array as="points">
              <mxPoint x="82" y="970" />
              <mxPoint x="414" y="970" />
            </Array>
          </mxGeometry>
        </mxCell>
        <mxCell id="upSLq7r1C17GMmXVNGqP-18" value="create" style="edgeLabel;html=1;align=center;verticalAlign=middle;resizable=0;points=[];" vertex="1" connectable="0" parent="v-qFhbS9O7U46pDk4-8g-60">
          <mxGeometry x="-0.0022" relative="1" as="geometry">
            <mxPoint as="offset" />
          </mxGeometry>
        </mxCell>
        <mxCell id="upSLq7r1C17GMmXVNGqP-19" value="" style="edgeStyle=orthogonalEdgeStyle;rounded=0;orthogonalLoop=1;jettySize=auto;html=1;" edge="1" parent="1" source="v-qFhbS9O7U46pDk4-8g-57" target="v-qFhbS9O7U46pDk4-8g-76">
          <mxGeometry relative="1" as="geometry">
            <mxPoint x="82.5" y="1335" as="targetPoint" />
            <Array as="points">
              <mxPoint x="83" y="1305" />
            </Array>
          </mxGeometry>
        </mxCell>
        <mxCell id="upSLq7r1C17GMmXVNGqP-20" value="Create" style="edgeLabel;html=1;align=center;verticalAlign=middle;resizable=0;points=[];" vertex="1" connectable="0" parent="upSLq7r1C17GMmXVNGqP-19">
          <mxGeometry x="-0.0412" y="1" relative="1" as="geometry">
            <mxPoint as="offset" />
          </mxGeometry>
        </mxCell>
        <mxCell id="upSLq7r1C17GMmXVNGqP-21" value="" style="edgeStyle=orthogonalEdgeStyle;rounded=0;orthogonalLoop=1;jettySize=auto;html=1;" edge="1" parent="1" source="v-qFhbS9O7U46pDk4-8g-57" target="v-qFhbS9O7U46pDk4-8g-58">
          <mxGeometry relative="1" as="geometry">
            <mxPoint x="185" y="1232.5" as="targetPoint" />
            <Array as="points">
              <mxPoint x="83" y="1050" />
              <mxPoint x="83" y="966" />
            </Array>
          </mxGeometry>
        </mxCell>
        <mxCell id="upSLq7r1C17GMmXVNGqP-22" value="create" style="edgeLabel;html=1;align=center;verticalAlign=middle;resizable=0;points=[];" vertex="1" connectable="0" parent="upSLq7r1C17GMmXVNGqP-21">
          <mxGeometry x="0.0321" y="6" relative="1" as="geometry">
            <mxPoint as="offset" />
          </mxGeometry>
        </mxCell>
        <mxCell id="upSLq7r1C17GMmXVNGqP-38" value="" style="edgeStyle=orthogonalEdgeStyle;rounded=0;orthogonalLoop=1;jettySize=auto;html=1;" edge="1" parent="1" source="v-qFhbS9O7U46pDk4-8g-57" target="v-qFhbS9O7U46pDk4-8g-108">
          <mxGeometry relative="1" as="geometry">
            <mxPoint x="185" y="1232.5" as="targetPoint" />
          </mxGeometry>
        </mxCell>
        <mxCell id="upSLq7r1C17GMmXVNGqP-39" value="create" style="edgeLabel;html=1;align=center;verticalAlign=middle;resizable=0;points=[];" vertex="1" connectable="0" parent="upSLq7r1C17GMmXVNGqP-38">
          <mxGeometry x="-0.278" y="-1" relative="1" as="geometry">
            <mxPoint as="offset" />
          </mxGeometry>
        </mxCell>
        <mxCell id="upSLq7r1C17GMmXVNGqP-48" value="" style="edgeStyle=orthogonalEdgeStyle;rounded=0;orthogonalLoop=1;jettySize=auto;html=1;entryX=0.019;entryY=0.444;entryDx=0;entryDy=0;entryPerimeter=0;" edge="1" parent="1" source="v-qFhbS9O7U46pDk4-8g-57" target="upSLq7r1C17GMmXVNGqP-44">
          <mxGeometry relative="1" as="geometry">
            <mxPoint x="92.5" y="1250.22" as="targetPoint" />
            <Array as="points">
              <mxPoint x="80" y="1494" />
            </Array>
          </mxGeometry>
        </mxCell>
        <mxCell id="upSLq7r1C17GMmXVNGqP-49" value="create" style="edgeLabel;html=1;align=center;verticalAlign=middle;resizable=0;points=[];" vertex="1" connectable="0" parent="upSLq7r1C17GMmXVNGqP-48">
          <mxGeometry x="0.1926" y="-2" relative="1" as="geometry">
            <mxPoint as="offset" />
          </mxGeometry>
        </mxCell>
        <mxCell id="v-qFhbS9O7U46pDk4-8g-57" value="Onboarding" style="sketch=0;pointerEvents=1;shadow=0;dashed=0;html=1;strokeColor=none;fillColor=#505050;labelPosition=center;verticalLabelPosition=bottom;verticalAlign=top;outlineConnect=0;align=center;shape=mxgraph.office.concepts.powershell;" parent="1" vertex="1">
          <mxGeometry x="70" y="1125.22" width="45" height="45" as="geometry" />
        </mxCell>
        <mxCell id="v-qFhbS9O7U46pDk4-8g-169" value="" style="edgeStyle=orthogonalEdgeStyle;rounded=0;orthogonalLoop=1;jettySize=auto;html=1;" parent="1" source="upSLq7r1C17GMmXVNGqP-1" target="v-qFhbS9O7U46pDk4-8g-166" edge="1">
          <mxGeometry relative="1" as="geometry">
            <mxPoint x="1058.5333333333333" y="147" as="sourcePoint" />
          </mxGeometry>
        </mxCell>
        <mxCell id="v-qFhbS9O7U46pDk4-8g-130" value="" style="endArrow=classic;html=1;rounded=0;exitX=1;exitY=0.5;exitDx=0;exitDy=0;dashed=1;dashPattern=8 8;entryX=0;entryY=0.5;entryDx=0;entryDy=0;entryPerimeter=0;" parent="1" source="v-qFhbS9O7U46pDk4-8g-25" target="v-qFhbS9O7U46pDk4-8g-127" edge="1">
          <mxGeometry width="50" height="50" relative="1" as="geometry">
            <mxPoint x="839.89" y="880" as="sourcePoint" />
            <mxPoint x="829.89" y="830" as="targetPoint" />
          </mxGeometry>
        </mxCell>
        <mxCell id="v-qFhbS9O7U46pDk4-8g-131" value="" style="endArrow=classic;html=1;rounded=0;exitX=1.026;exitY=0.563;exitDx=0;exitDy=0;exitPerimeter=0;entryX=0;entryY=0.5;entryDx=0;entryDy=0;dashed=1;dashPattern=12 12;" parent="1" source="v-qFhbS9O7U46pDk4-8g-18" target="v-qFhbS9O7U46pDk4-8g-128" edge="1">
          <mxGeometry width="50" height="50" relative="1" as="geometry">
            <mxPoint x="459.89" y="1000" as="sourcePoint" />
            <mxPoint x="509.89" y="950" as="targetPoint" />
          </mxGeometry>
        </mxCell>
        <mxCell id="v-qFhbS9O7U46pDk4-8g-133" value="" style="endArrow=classic;html=1;rounded=0;exitX=1.016;exitY=0.337;exitDx=0;exitDy=0;exitPerimeter=0;entryX=0;entryY=0.25;entryDx=0;entryDy=0;dashed=1;dashPattern=12 12;" parent="1" target="v-qFhbS9O7U46pDk4-8g-132" edge="1" source="v-qFhbS9O7U46pDk4-8g-121">
          <mxGeometry width="50" height="50" relative="1" as="geometry">
            <mxPoint x="332.39" y="989.69" as="sourcePoint" />
            <mxPoint x="805.39" y="993.69" as="targetPoint" />
          </mxGeometry>
        </mxCell>
        <mxCell id="v-qFhbS9O7U46pDk4-8g-135" value="" style="endArrow=classic;html=1;rounded=0;exitX=1;exitY=0.25;exitDx=0;exitDy=0;dashed=1;dashPattern=8 8;entryX=0;entryY=0.5;entryDx=0;entryDy=0;" parent="1" source="v-qFhbS9O7U46pDk4-8g-113" target="v-qFhbS9O7U46pDk4-8g-134" edge="1">
          <mxGeometry width="50" height="50" relative="1" as="geometry">
            <mxPoint x="593.89" y="1310" as="sourcePoint" />
            <mxPoint x="809.89" y="1300" as="targetPoint" />
          </mxGeometry>
        </mxCell>
        <mxCell id="v-qFhbS9O7U46pDk4-8g-151" value="" style="edgeStyle=orthogonalEdgeStyle;rounded=0;orthogonalLoop=1;jettySize=auto;html=1;entryX=1;entryY=0.5;entryDx=0;entryDy=0;" parent="1" source="v-qFhbS9O7U46pDk4-8g-147" target="v-qFhbS9O7U46pDk4-8g-149" edge="1">
          <mxGeometry relative="1" as="geometry">
            <mxPoint x="2232.3900000000003" y="892.4100000000001" as="targetPoint" />
            <Array as="points">
              <mxPoint x="1663" y="729" />
              <mxPoint x="1660" y="729" />
              <mxPoint x="1660" y="694" />
            </Array>
          </mxGeometry>
        </mxCell>
        <mxCell id="upSLq7r1C17GMmXVNGqP-41" value="Create" style="edgeLabel;html=1;align=center;verticalAlign=middle;resizable=0;points=[];" vertex="1" connectable="0" parent="v-qFhbS9O7U46pDk4-8g-151">
          <mxGeometry x="-0.5814" y="1" relative="1" as="geometry">
            <mxPoint as="offset" />
          </mxGeometry>
        </mxCell>
        <mxCell id="v-qFhbS9O7U46pDk4-8g-152" value="" style="edgeStyle=orthogonalEdgeStyle;rounded=0;orthogonalLoop=1;jettySize=auto;html=1;entryX=1;entryY=0.25;entryDx=0;entryDy=0;" parent="1" source="v-qFhbS9O7U46pDk4-8g-147" target="v-qFhbS9O7U46pDk4-8g-132" edge="1">
          <mxGeometry relative="1" as="geometry">
            <mxPoint x="2129.8900000000003" y="994.9100000000001" as="targetPoint" />
            <Array as="points">
              <mxPoint x="1321" y="913" />
              <mxPoint x="1321" y="980" />
              <mxPoint x="1002" y="980" />
            </Array>
          </mxGeometry>
        </mxCell>
        <mxCell id="v-qFhbS9O7U46pDk4-8g-153" value="Convert to security group" style="edgeLabel;html=1;align=center;verticalAlign=middle;resizable=0;points=[];" parent="v-qFhbS9O7U46pDk4-8g-152" vertex="1" connectable="0">
          <mxGeometry x="-0.2675" y="3" relative="1" as="geometry">
            <mxPoint y="-1" as="offset" />
          </mxGeometry>
        </mxCell>
        <mxCell id="v-qFhbS9O7U46pDk4-8g-156" value="" style="edgeStyle=orthogonalEdgeStyle;rounded=0;orthogonalLoop=1;jettySize=auto;html=1;entryX=1;entryY=0.5;entryDx=0;entryDy=0;" parent="1" source="v-qFhbS9O7U46pDk4-8g-147" target="v-qFhbS9O7U46pDk4-8g-136" edge="1">
          <mxGeometry relative="1" as="geometry">
            <mxPoint x="2334.8900000000003" y="994.9100000000001" as="targetPoint" />
            <Array as="points">
              <mxPoint x="1663" y="1055" />
            </Array>
          </mxGeometry>
        </mxCell>
        <mxCell id="v-qFhbS9O7U46pDk4-8g-157" value="create" style="edgeLabel;html=1;align=center;verticalAlign=middle;resizable=0;points=[];" parent="v-qFhbS9O7U46pDk4-8g-156" vertex="1" connectable="0">
          <mxGeometry x="-0.2913" y="1" relative="1" as="geometry">
            <mxPoint as="offset" />
          </mxGeometry>
        </mxCell>
        <mxCell id="v-qFhbS9O7U46pDk4-8g-147" value="onboarding" style="sketch=0;pointerEvents=1;shadow=0;dashed=0;html=1;strokeColor=none;fillColor=#505050;labelPosition=center;verticalLabelPosition=bottom;verticalAlign=top;outlineConnect=0;align=center;shape=mxgraph.office.concepts.powershell;" parent="1" vertex="1">
          <mxGeometry x="1640.0000000000005" y="890" width="45" height="45" as="geometry" />
        </mxCell>
        <mxCell id="v-qFhbS9O7U46pDk4-8g-165" value="" style="shape=image;verticalLabelPosition=bottom;labelBackgroundColor=default;verticalAlign=top;aspect=fixed;imageAspect=0;image=data:image/jpeg,/9j/4AAQSkZJRgABAQAAAQABAAD/2wCEAAoHCBIRFBISEhISEhMSEg8SERgSExMSFxIXGBcYGBcUFxgaICwnGh0qHhUXJDYkKS0vMzM1GSI4PjgwPSw0NS8BCwsLDw4PHhISHTQpIykyMi8yMjIyMjIyMjIyMjIyLzMyMjIyMjIyMjIyMi8yMjIyMjIyMjIzMjIyMjIyMjIyL//AABEIAOEA4QMBIgACEQEDEQH/xAAcAAEAAQUBAQAAAAAAAAAAAAAABwECBAUGAwj/xABAEAACAQIBCQUDCgUEAwAAAAAAAQIDEQQFBhIhMUFRYXEHEyKBkTJCsRQ0UmJyc5KhssEWIyRUgjNTosIX4fD/xAAaAQEAAgMBAAAAAAAAAAAAAAAAAQMCBAUG/8QALxEAAgECAwQKAwADAAAAAAAAAAECAxEEMUESIXGBBRMyUWGhscHR8CJC4RWR8f/aAAwDAQACEQMRAD8AmYAAAAAAAAAAAAAAAA4rPTOiphpxw9CyqOKnOTSeineySe/VfzRKV2V1asaUdqR2oIa/ivHf3E/RD+K8d/cT/Iy6tmn/AJGn3Py+SZQQ1/FeO/uJ/kP4rx39xP8AInq2P8jT7n5fJMoI8zPzurVa0KGJan3l1TlZJxkk2k7bU7etiQzBqxt0a0asdqIABBaAAAAAAAAAAAAAAAAAAAAAAAAAAAAAACF86sT3uMxM9q09BdIJR/6kwYzEKlTqVHspwnN9Iq/7EEuTk25a223Lm3rbLKa1Ob0jPdGPP/W73DKMqWlpyQGAAe2BxHdVaVT/AG505+kk/wBieIyTSa2NXRADJrzYxXfYTDzvd92oSfGUPBL84srqLU6fRst8o8H7fBtgAVHVAAAAAAAAAAAAAAAAAAAB51JqKcpNJJNtvUklrbYB6A4+tn5hozcYwnOKdtJWV+aT3ehtsBnLhK9tGtGLfuz8D6a9T8mS4tFMcRSk7KSN0CiKkFwBZKSSbbslrbeqxyWXM9qNG8KFq1TZe/gj5r2vL1JSuYVKkaavJ2PbP3Kao4WVJP8AmV/BFb9G/il0tq8yKzJyhj6mInKpVk5yl6JbkluRjF0VZHCxFbrZ300BaXFpka4AAAJF7NcpxlSnhpO0qcnOCe+MvaS6Su/8iOi/D15UpRnCTjKLvGUdTTIaui6hWdKakT6DhMg5+QnanikqctSU4rwv7Ufd8vyO2pVYzipwkpRkrxcWmmuKaKGmszu0q0KqvFnqACC0A1GUM4cJh795WjpL3Y+OV+Fo7PM0P/kTC6Vu7qaF7aXhv+H/ANk7LZTPEUoO0pI7UGPhMTCtCNSnJShNXi1vRkEFydwAAAAAAAAAcR2g5Z0IRwsH4qivUtujuXm16LmdXlLHQw9Kdab8MFd8W9iiubdl5kL47Fzr1KlWbvOcnJ8uEVySsvIzhG7uaOOr7ENhZv0/uRji4BecY2GAy1icP/pVZxX0b6UfwvUb+ln9ikrOnSk+LU031s0jkAYuKeZbCvUgrRk0bfK+ceJxXhnPRh9GHhj58fM04KEpWK5SlJ3k7sAAGIZaXFGAUDAYBQBlGCAbLJOXcThH/Km1F7YS8UH5P4mtDBKk4u6dmdk+0PFWt3VFPjafrtNDlHOLF4i6qVp6L92Pgj6LaaooyFFItniKs1aUn94BlCpQyKDuuzfLehOWEm/DNuVG+6fvQ80r9U+JJZ8+U6koSjOLcZQkpRa2xad015k25uZWjjKEKytf2aiXuzW1dN65NFM46nY6Pr7UeremXD+G2ABWdIAAAAGDlbEOlQrVYq8qdKpOPWMW1flqAbtvOD7Qcs95UWFg/DSelUt707ao+Sfq3wONEpOTcpNuUm3Jva29bbKGylZWPN1arqyc3qVBQAwKlAUAKlGLnb5n5qqSjicTG6dpUoSWprdOS4cFv2shuxZSpSqy2Y/8NXm/mnWxSjOb7mi9ak1ec19WPD6z1dTSZUoxp1q1ON9GnUnCN3dtRk0r89RNxCecL/q8V9/W/WzCMm2buIwsKVNWzvnyMMFsZFxYc5qwAAIKJXa6o63ODMmpRTqYdutTWvRt/Mgui9pdNfI5KO1dV8SeTCcmrG9g6EK0ZKXhbzIFuUJJzvzUVZSxGGilVV5ThFWVXi0t0vj1I2Moyua9ehKjK0uT7wUZUoSUFGAAAzpcxst/JcQoTdqVdxhO+yEvcn6uz5Pkc0UYavuMqc3TkpRzR9DA0WZ2MnXwdCpPXK04N8dCcoJ9bRXnc3prHpYSUoqS1AABkDznBSTjJJpppp6009qZ6AAifOvNaeEbqUk54dvbtlRv7s+MeEvJ8XzJPU4KSaaTTTTTV009qaI1zuzRdDSr4eLdHW6kFrdLnHjD8102Wxnozk4rB7P508tV3cPDw04ZceACw5wAKfn+5JFzpMzMiLFVXOor0aNnJPZOfuw6b35LeSmazN7JqwuHp0ra9HSqc5y1v02dEjZmvJ3Z6DC0eqp21ef3wBCWcPzvFff1v1sm0hHOH53ivv6362TDMqx3YXH2ZgouiyxFS05MkehQJgkqYjtXVfEnkgWO1dV8SeiupodToz9+XuCNu0HISpTWLpxtCpK1ZJaoVHsn0lv59SSDHyhg44inUoz9mpBxfK+yS5p2fkYRdnc3q9FVYOL5cfu4gy4K16M6U505q04TlCfWLs7ctRQvPOyi095QAAgob7NjNqrj5X1woRdqk7beMI32y/Jb9yeTmlmnPGtVaulDDRet7JVWtsYcuMvJa72ljDYeFKMadOKjCKSjGKskjCU7bkdDCYPb/OeXr/PUtweFhRhClTWjCEVGK4Jc95kgFJ2QAAAAAAAACIM9MlRwuJagtGnVjpwS2Ru2pRXJNXtuTSNAdv2oe3hfsVfjA4YvjkeexUVGtJLv9VcuNrmthe+xmHg1dd46kukE5a/wpeZqDq+zqF8VJ/RoTa9Yr92TJ2RGHjtVYrxRJoANc9ECEc4fneK+/rfrZNxCGcPzvFff1v1szhmaWO7C4+zMFFS1FS05LKouuWoqSYNXKx2rqviTyQNF611XxJ5K6mh0ujP35e4ABUdQibtDwnd4yUkrKtThPz1wl+hPzOaizuu1SHiwkuMcRF+Tg1+pnBovhkcLFxSqyX3JM9DaZt5N+V4mlRd9CUnKdtXgitJq+69rX5mpizruzb54/uavxiTLcimhBSqxi+8lSlTjCMYxSjGKUYpKySWpJLcj1ANc9GAAAAAAAAAAAARx2o+3hfsVfjA4Y6ntByjGtidCLuqENBtbNJu8vTUuqZyxfDI8/i2nXk19srA6zs4nbEzX0qEkuqlB/szkzc5n4rusbh23ZSlKEv8AOLiv+TiTJXRGGls1ovx9dxL4ANc9CDS5WzXwmKvKpTUJy1udP+XNvi7apPqmboC5jKKkrNXIzypmBiIXlh5xrx+jK1OfTX4Zeq6HJYrDVKUtCpTnTmvdnFp9VfauZPJ44rC060dCrCFSHCcU11V9jM1O2Zp1MDGW+Dt5r5IKo05TkoQjKc3sjCLlJ9EtZ1OS8xcVVtKq44eP1vHL8CerzaJIwGT6OHjo0acKa36EVd9XtfmZRLm9DGn0fFdt38vvkc/krNHCYez7vvZLXpVfFZ8o+yvS5vwDBu5vQhGCtFWAAIMiPO1SfiwceCxEn5uml8GcEjqu0jFaeLVNO6o06cHylJub/KUfQ5UvjuRw8W71ZP7lYqdd2aP+sf3NX4xORN1mhlKOGxdKpJ2g3KNRvYozVtJ8k9F+RMluKqElGrFvvJuBQqa56EAAAAAAAAAHCZ3Z4qnpYfDSTnrjUqLWocYx4y57vhh5354aWlh8LK0fZqVF731Y8ue/pt4UthDVnLxeN/Sm+L+Pkq2CgLDlAJtNOLs000+DWtMFCQTbkbKCxVClWVvHBaaXuzWqcfKSZmkZ5g5cVCo8PUdqdaS7tvZCpsXk1ZdUuJJhrSVmeiw9ZVaalrrxAAILwAUAAAAAAAB5YrEQpU51KjtCEJTm+Cirs9SPe0jLy1YKnLfGeIa3b4U/hJ/48WSlcrq1FTg5HD47Fyr1alaftVJym1ttd6o9ErLyPAoipsI4Em295UAArO6zOzy7rRw+KlenqjTqPW4cIy4x57umyTIyTSaaaaTTWtNcj55OvzQzwlhXGjXbnh27Re2VHmuMeXpzrnDVHQwuN2fwqZaPu4+Hjp6S0DzpVIzipRalGSUotO6aetNHoVHXAAABr8tRnLD14076cqNRQttcnF2S5mwAIaufPqB1OfuRfk9fvYK1LENy1bIT2zj5+0ur4HLGyndXPNVKbpycXoAADAAAAoySczc6VWUcNiJWqpKNOcn/AKq3Rb+l8epGxRkSjcvoV5UpXRPhQjfN7PmdJRp4tSqU1ZRqLXUivrr31z29SQ8LiadWMalOSnGSjJNcGrrVu1FDi0dylXhVV4vlqeoKgguKAqACgLak4wTlKSjFbXJ2RH+cPaAvFTwSd9adWatb7uD+MvR7SUrldSpGmryN3nfnVDBxdOm1PEzXhW1Uk/fnz4R39CJJSlJuUm5Sk3KTk7uTbu23vdxKUpNyk3KUm5SlJuTk3tbb2sFyVjkV67qO7yCLi0uMjVKAAGJUA3eaORXjcRCLX8qFqlZ/VT1R6yerpd7g3YmEHOSis2SbmNCawOHU73am4326EpycP+LTXJo6EtjFJJJWS1JLVYuNZnpIR2YqPduAABkAAAazLuS44uhUoysnJXhL6E1rjL128m0QliKMqc5wmnGcZShNPc07NH0ARz2k5Es44ymtT0ade3HZCo/yi/8AEspys7HPx9Haj1izWfD+HBAoC04xUF1GnKpJQpwlOT2RhFyk/Jazc080coySksNOz2aVSlB/hlNNeYujOFOc+ym+CNIDJx+Tq2Hlo1qVSm3s01ql9mS1S8mYoMWmnZhkvZMwunhsPJNxmqFK0otp+ytV1uIhZNmQl/S4b7il+lGFQ6XRnalyMNYyvTdm1K3046/VWL1lia204vpNr9jY4jDKa5rY/wBjWSoWdmtZSdYveWJ7qS85t/8AU8amUq0tmjD7Mbv1lf4F3clFSAMKpCU/FOUpPXrk27dOBEaJr7vU+jIViW09Tn499nn7FyAR74PCVK0+7pU51J/RhFtpcXbYubLMjmb27I8C43sszcpJX+Sytt1VaDfop3NNisLUoy0KtOpTlwnGUW+l9pCaYnTnBXkmuKPEuLSpkVD/AO1E05nZE+RYeMZL+bUtOs+Da1Q6RWrrd7zhuzrIff1vlFRXp4dpxvsnU2xX+PtddElopnLQ62AoWXWPXIAArOkAAAAAADHxWHhVhKnUSlCcXGSe9MyAARvX7N56b7vEx0L6tOm3OK4OztJ89RuMnZgYSnZ1XOvL6zdOP4Y6/JtnYAyc5PU1o4ShF3UTGwmDpUY6NKnCnHhCKivyMkAxNkx8VhadaDp1IRnB7YySkn67zgMvdn8lepg5XW10qkta5Qm9vSXqSOCU2imrQhVVpL5PnytSlCUoTjKEotqUZJxcXwaZNWQfmuG+4pfpRou0XIqq0XiYxSqUdHSaXtQbtZ/Zbvfhc3uQfmuG+4o/pRnJ3SNXC0HRqyj4KxsDyrUlNc9zPUFZ0DWyhbUymiZ9SmpdTG0LAHi46n0ZB0FdpJNtuyS1tt7ElvZO0o6n0ZxXZhkOEtPGVIpuM3ToJr2Wvbn11pLh4iyDsmaeKpupOMV4+xjZv9n9Wrapim6EHZqEbd7L7W6C9XyRI+TMm0cNBU6FONOO+2tt8ZN65PmzOBi5Nl9KhCn2Vz1+8AeOIw8KkXCpCE4vbGcVJPyZ7AxLTkso5hYKrdwjKhJ76cvDf7ErpLkrGg/8Z1NK3yqn3d9vdS0rdNK1/MkwGSk0a88LRm7uPt6GBkjJtPCUoUKSajBbXrcm9blJ8WzPAMS9JJWQAAJAAAAAAAAAAAAAAAAAAMPKWH76jVpf7lOpDppRa/cwsgr+lw19T7ilfl4UbkxKdNQSgtkdS5LgDG2+5cAAZAtnC5cADGnHU+jMLMrCdzgcNHfKn3rvtvVbqa/xJeRtJxumuTR70qajGMVqUYxiuSSsib7rEbN5X+6fB6AAgkAAAAAAAAAAAAAAAAAAAAAAAAAAAAAAGLUei3dOz1ppN+TtsMoAGB8qp/TQ+VU/pozwAYHyqn9ND5XT+mvzM8AGHGenqjdre7NJLq9rMwAAAAAAAAAAAAAAAAAAAAAAAAAAAAAAAAAAAAAAAAAAAAAAAAAAAAAAAAAAAAAAAAA//9k=;" parent="1" vertex="1">
          <mxGeometry x="1020" y="190" width="60" height="60" as="geometry" />
        </mxCell>
        <mxCell id="v-qFhbS9O7U46pDk4-8g-166" value="Custom admin role" style="shape=image;verticalLabelPosition=bottom;labelBackgroundColor=default;verticalAlign=top;aspect=fixed;imageAspect=0;image=data:image/jpeg,/9j/4AAQSkZJRgABAQAAAQABAAD/2wCEAAoHCBIRFBISEhISEhMSEg8SERgSExMSFxIXGBcYGBcUFxgaICwnGh0qHhUXJDYkKS0vMzM1GSI4PjgwPSw0NS8BCwsLDw4PHhISHTQpIykyMi8yMjIyMjIyMjIyMjIyLzMyMjIyMjIyMjIyMi8yMjIyMjIyMjIzMjIyMjIyMjIyL//AABEIAOEA4QMBIgACEQEDEQH/xAAcAAEAAQUBAQAAAAAAAAAAAAAABwECBAUGAwj/xABAEAACAQIBCQUDCgUEAwAAAAAAAQIDEQQFBhIhMUFRYXEHEyKBkTJCsRQ0UmJyc5KhssEWIyRUgjNTosIX4fD/xAAaAQEAAgMBAAAAAAAAAAAAAAAAAQMCBAUG/8QALxEAAgECAwQKAwADAAAAAAAAAAECAxEEMUESIXGBBRMyUWGhscHR8CJC4RWR8f/aAAwDAQACEQMRAD8AmYAAAAAAAAAAAAAAAA4rPTOiphpxw9CyqOKnOTSeineySe/VfzRKV2V1asaUdqR2oIa/ivHf3E/RD+K8d/cT/Iy6tmn/AJGn3Py+SZQQ1/FeO/uJ/kP4rx39xP8AInq2P8jT7n5fJMoI8zPzurVa0KGJan3l1TlZJxkk2k7bU7etiQzBqxt0a0asdqIABBaAAAAAAAAAAAAAAAAAAAAAAAAAAAAAACF86sT3uMxM9q09BdIJR/6kwYzEKlTqVHspwnN9Iq/7EEuTk25a223Lm3rbLKa1Ob0jPdGPP/W73DKMqWlpyQGAAe2BxHdVaVT/AG505+kk/wBieIyTSa2NXRADJrzYxXfYTDzvd92oSfGUPBL84srqLU6fRst8o8H7fBtgAVHVAAAAAAAAAAAAAAAAAAAB51JqKcpNJJNtvUklrbYB6A4+tn5hozcYwnOKdtJWV+aT3ehtsBnLhK9tGtGLfuz8D6a9T8mS4tFMcRSk7KSN0CiKkFwBZKSSbbslrbeqxyWXM9qNG8KFq1TZe/gj5r2vL1JSuYVKkaavJ2PbP3Kao4WVJP8AmV/BFb9G/il0tq8yKzJyhj6mInKpVk5yl6JbkluRjF0VZHCxFbrZ300BaXFpka4AAAJF7NcpxlSnhpO0qcnOCe+MvaS6Su/8iOi/D15UpRnCTjKLvGUdTTIaui6hWdKakT6DhMg5+QnanikqctSU4rwv7Ufd8vyO2pVYzipwkpRkrxcWmmuKaKGmszu0q0KqvFnqACC0A1GUM4cJh795WjpL3Y+OV+Fo7PM0P/kTC6Vu7qaF7aXhv+H/ANk7LZTPEUoO0pI7UGPhMTCtCNSnJShNXi1vRkEFydwAAAAAAAAAcR2g5Z0IRwsH4qivUtujuXm16LmdXlLHQw9Kdab8MFd8W9iiubdl5kL47Fzr1KlWbvOcnJ8uEVySsvIzhG7uaOOr7ENhZv0/uRji4BecY2GAy1icP/pVZxX0b6UfwvUb+ln9ikrOnSk+LU031s0jkAYuKeZbCvUgrRk0bfK+ceJxXhnPRh9GHhj58fM04KEpWK5SlJ3k7sAAGIZaXFGAUDAYBQBlGCAbLJOXcThH/Km1F7YS8UH5P4mtDBKk4u6dmdk+0PFWt3VFPjafrtNDlHOLF4i6qVp6L92Pgj6LaaooyFFItniKs1aUn94BlCpQyKDuuzfLehOWEm/DNuVG+6fvQ80r9U+JJZ8+U6koSjOLcZQkpRa2xad015k25uZWjjKEKytf2aiXuzW1dN65NFM46nY6Pr7UeremXD+G2ABWdIAAAAGDlbEOlQrVYq8qdKpOPWMW1flqAbtvOD7Qcs95UWFg/DSelUt707ao+Sfq3wONEpOTcpNuUm3Jva29bbKGylZWPN1arqyc3qVBQAwKlAUAKlGLnb5n5qqSjicTG6dpUoSWprdOS4cFv2shuxZSpSqy2Y/8NXm/mnWxSjOb7mi9ak1ec19WPD6z1dTSZUoxp1q1ON9GnUnCN3dtRk0r89RNxCecL/q8V9/W/WzCMm2buIwsKVNWzvnyMMFsZFxYc5qwAAIKJXa6o63ODMmpRTqYdutTWvRt/Mgui9pdNfI5KO1dV8SeTCcmrG9g6EK0ZKXhbzIFuUJJzvzUVZSxGGilVV5ThFWVXi0t0vj1I2Moyua9ehKjK0uT7wUZUoSUFGAAAzpcxst/JcQoTdqVdxhO+yEvcn6uz5Pkc0UYavuMqc3TkpRzR9DA0WZ2MnXwdCpPXK04N8dCcoJ9bRXnc3prHpYSUoqS1AABkDznBSTjJJpppp6009qZ6AAifOvNaeEbqUk54dvbtlRv7s+MeEvJ8XzJPU4KSaaTTTTTV009qaI1zuzRdDSr4eLdHW6kFrdLnHjD8102Wxnozk4rB7P508tV3cPDw04ZceACw5wAKfn+5JFzpMzMiLFVXOor0aNnJPZOfuw6b35LeSmazN7JqwuHp0ra9HSqc5y1v02dEjZmvJ3Z6DC0eqp21ef3wBCWcPzvFff1v1sm0hHOH53ivv6362TDMqx3YXH2ZgouiyxFS05MkehQJgkqYjtXVfEnkgWO1dV8SeiupodToz9+XuCNu0HISpTWLpxtCpK1ZJaoVHsn0lv59SSDHyhg44inUoz9mpBxfK+yS5p2fkYRdnc3q9FVYOL5cfu4gy4K16M6U505q04TlCfWLs7ctRQvPOyi095QAAgob7NjNqrj5X1woRdqk7beMI32y/Jb9yeTmlmnPGtVaulDDRet7JVWtsYcuMvJa72ljDYeFKMadOKjCKSjGKskjCU7bkdDCYPb/OeXr/PUtweFhRhClTWjCEVGK4Jc95kgFJ2QAAAAAAAACIM9MlRwuJagtGnVjpwS2Ru2pRXJNXtuTSNAdv2oe3hfsVfjA4YvjkeexUVGtJLv9VcuNrmthe+xmHg1dd46kukE5a/wpeZqDq+zqF8VJ/RoTa9Yr92TJ2RGHjtVYrxRJoANc9ECEc4fneK+/rfrZNxCGcPzvFff1v1szhmaWO7C4+zMFFS1FS05LKouuWoqSYNXKx2rqviTyQNF611XxJ5K6mh0ujP35e4ABUdQibtDwnd4yUkrKtThPz1wl+hPzOaizuu1SHiwkuMcRF+Tg1+pnBovhkcLFxSqyX3JM9DaZt5N+V4mlRd9CUnKdtXgitJq+69rX5mpizruzb54/uavxiTLcimhBSqxi+8lSlTjCMYxSjGKUYpKySWpJLcj1ANc9GAAAAAAAAAAAARx2o+3hfsVfjA4Y6ntByjGtidCLuqENBtbNJu8vTUuqZyxfDI8/i2nXk19srA6zs4nbEzX0qEkuqlB/szkzc5n4rusbh23ZSlKEv8AOLiv+TiTJXRGGls1ovx9dxL4ANc9CDS5WzXwmKvKpTUJy1udP+XNvi7apPqmboC5jKKkrNXIzypmBiIXlh5xrx+jK1OfTX4Zeq6HJYrDVKUtCpTnTmvdnFp9VfauZPJ44rC060dCrCFSHCcU11V9jM1O2Zp1MDGW+Dt5r5IKo05TkoQjKc3sjCLlJ9EtZ1OS8xcVVtKq44eP1vHL8CerzaJIwGT6OHjo0acKa36EVd9XtfmZRLm9DGn0fFdt38vvkc/krNHCYez7vvZLXpVfFZ8o+yvS5vwDBu5vQhGCtFWAAIMiPO1SfiwceCxEn5uml8GcEjqu0jFaeLVNO6o06cHylJub/KUfQ5UvjuRw8W71ZP7lYqdd2aP+sf3NX4xORN1mhlKOGxdKpJ2g3KNRvYozVtJ8k9F+RMluKqElGrFvvJuBQqa56EAAAAAAAAAHCZ3Z4qnpYfDSTnrjUqLWocYx4y57vhh5354aWlh8LK0fZqVF731Y8ue/pt4UthDVnLxeN/Sm+L+Pkq2CgLDlAJtNOLs000+DWtMFCQTbkbKCxVClWVvHBaaXuzWqcfKSZmkZ5g5cVCo8PUdqdaS7tvZCpsXk1ZdUuJJhrSVmeiw9ZVaalrrxAAILwAUAAAAAAAB5YrEQpU51KjtCEJTm+Cirs9SPe0jLy1YKnLfGeIa3b4U/hJ/48WSlcrq1FTg5HD47Fyr1alaftVJym1ttd6o9ErLyPAoipsI4Em295UAArO6zOzy7rRw+KlenqjTqPW4cIy4x57umyTIyTSaaaaTTWtNcj55OvzQzwlhXGjXbnh27Re2VHmuMeXpzrnDVHQwuN2fwqZaPu4+Hjp6S0DzpVIzipRalGSUotO6aetNHoVHXAAABr8tRnLD14076cqNRQttcnF2S5mwAIaufPqB1OfuRfk9fvYK1LENy1bIT2zj5+0ur4HLGyndXPNVKbpycXoAADAAAAoySczc6VWUcNiJWqpKNOcn/AKq3Rb+l8epGxRkSjcvoV5UpXRPhQjfN7PmdJRp4tSqU1ZRqLXUivrr31z29SQ8LiadWMalOSnGSjJNcGrrVu1FDi0dylXhVV4vlqeoKgguKAqACgLak4wTlKSjFbXJ2RH+cPaAvFTwSd9adWatb7uD+MvR7SUrldSpGmryN3nfnVDBxdOm1PEzXhW1Uk/fnz4R39CJJSlJuUm5Sk3KTk7uTbu23vdxKUpNyk3KUm5SlJuTk3tbb2sFyVjkV67qO7yCLi0uMjVKAAGJUA3eaORXjcRCLX8qFqlZ/VT1R6yerpd7g3YmEHOSis2SbmNCawOHU73am4326EpycP+LTXJo6EtjFJJJWS1JLVYuNZnpIR2YqPduAABkAAAazLuS44uhUoysnJXhL6E1rjL128m0QliKMqc5wmnGcZShNPc07NH0ARz2k5Es44ymtT0ade3HZCo/yi/8AEspys7HPx9Haj1izWfD+HBAoC04xUF1GnKpJQpwlOT2RhFyk/Jazc080coySksNOz2aVSlB/hlNNeYujOFOc+ym+CNIDJx+Tq2Hlo1qVSm3s01ql9mS1S8mYoMWmnZhkvZMwunhsPJNxmqFK0otp+ytV1uIhZNmQl/S4b7il+lGFQ6XRnalyMNYyvTdm1K3046/VWL1lia204vpNr9jY4jDKa5rY/wBjWSoWdmtZSdYveWJ7qS85t/8AU8amUq0tmjD7Mbv1lf4F3clFSAMKpCU/FOUpPXrk27dOBEaJr7vU+jIViW09Tn499nn7FyAR74PCVK0+7pU51J/RhFtpcXbYubLMjmb27I8C43sszcpJX+Sytt1VaDfop3NNisLUoy0KtOpTlwnGUW+l9pCaYnTnBXkmuKPEuLSpkVD/AO1E05nZE+RYeMZL+bUtOs+Da1Q6RWrrd7zhuzrIff1vlFRXp4dpxvsnU2xX+PtddElopnLQ62AoWXWPXIAArOkAAAAAADHxWHhVhKnUSlCcXGSe9MyAARvX7N56b7vEx0L6tOm3OK4OztJ89RuMnZgYSnZ1XOvL6zdOP4Y6/JtnYAyc5PU1o4ShF3UTGwmDpUY6NKnCnHhCKivyMkAxNkx8VhadaDp1IRnB7YySkn67zgMvdn8lepg5XW10qkta5Qm9vSXqSOCU2imrQhVVpL5PnytSlCUoTjKEotqUZJxcXwaZNWQfmuG+4pfpRou0XIqq0XiYxSqUdHSaXtQbtZ/Zbvfhc3uQfmuG+4o/pRnJ3SNXC0HRqyj4KxsDyrUlNc9zPUFZ0DWyhbUymiZ9SmpdTG0LAHi46n0ZB0FdpJNtuyS1tt7ElvZO0o6n0ZxXZhkOEtPGVIpuM3ToJr2Wvbn11pLh4iyDsmaeKpupOMV4+xjZv9n9Wrapim6EHZqEbd7L7W6C9XyRI+TMm0cNBU6FONOO+2tt8ZN65PmzOBi5Nl9KhCn2Vz1+8AeOIw8KkXCpCE4vbGcVJPyZ7AxLTkso5hYKrdwjKhJ76cvDf7ErpLkrGg/8Z1NK3yqn3d9vdS0rdNK1/MkwGSk0a88LRm7uPt6GBkjJtPCUoUKSajBbXrcm9blJ8WzPAMS9JJWQAAJAAAAAAAAAAAAAAAAAAMPKWH76jVpf7lOpDppRa/cwsgr+lw19T7ilfl4UbkxKdNQSgtkdS5LgDG2+5cAAZAtnC5cADGnHU+jMLMrCdzgcNHfKn3rvtvVbqa/xJeRtJxumuTR70qajGMVqUYxiuSSsib7rEbN5X+6fB6AAgkAAAAAAAAAAAAAAAAAAAAAAAAAAAAAAGLUei3dOz1ppN+TtsMoAGB8qp/TQ+VU/pozwAYHyqn9ND5XT+mvzM8AGHGenqjdre7NJLq9rMwAAAAAAAAAAAAAAAAAAAAAAAAAAAAAAAAAAAAAAAAAAAAAAAAAAAAAAAAAAAAAAAAA//9k=;" parent="1" vertex="1">
          <mxGeometry x="1050" y="220" width="20" height="20" as="geometry" />
        </mxCell>
        <mxCell id="upSLq7r1C17GMmXVNGqP-1" value="Google Workspace" style="sketch=0;html=1;aspect=fixed;strokeColor=none;shadow=0;fillColor=#3B8DF1;verticalAlign=top;labelPosition=center;verticalLabelPosition=bottom;shape=mxgraph.gcp2.cloud" vertex="1" parent="1">
          <mxGeometry x="1008.54" y="72" width="100" height="69" as="geometry" />
        </mxCell>
        <mxCell id="v-qFhbS9O7U46pDk4-8g-45" value="USER" style="image;aspect=fixed;html=1;points=[];align=center;fontSize=12;image=img/lib/azure2/identity/Users.svg;movable=1;resizable=1;rotatable=1;deletable=1;editable=1;locked=0;connectable=1;" parent="1" vertex="1">
          <mxGeometry x="660" y="310" width="36.57" height="40" as="geometry" />
        </mxCell>
        <mxCell id="upSLq7r1C17GMmXVNGqP-33" value="" style="group;recursiveResiz=0;fillColor=none;" vertex="1" connectable="0" parent="1">
          <mxGeometry x="230" y="510" width="593.63" height="1350" as="geometry" />
        </mxCell>
        <mxCell id="v-qFhbS9O7U46pDk4-8g-163" value="" style="rounded=1;whiteSpace=wrap;html=1;fillColor=none;container=1;" parent="upSLq7r1C17GMmXVNGqP-33" vertex="1">
          <mxGeometry y="40.17364246546212" width="593.63" height="1207.2474709616956" as="geometry">
            <mxRectangle x="230" y="546.07" width="50" height="40" as="alternateBounds" />
          </mxGeometry>
        </mxCell>
        <mxCell id="v-qFhbS9O7U46pDk4-8g-38" value="Regio Admin" style="image;aspect=fixed;html=1;points=[];align=center;fontSize=12;image=img/lib/azure2/intune/Azure_AD_Roles_and_Administrators.svg;" parent="v-qFhbS9O7U46pDk4-8g-163" vertex="1">
          <mxGeometry x="59.09" y="96.43" width="33.57" height="33.57" as="geometry" />
        </mxCell>
        <mxCell id="upSLq7r1C17GMmXVNGqP-31" value="" style="edgeStyle=orthogonalEdgeStyle;rounded=0;orthogonalLoop=1;jettySize=auto;html=1;" edge="1" parent="v-qFhbS9O7U46pDk4-8g-163" source="upSLq7r1C17GMmXVNGqP-29" target="v-qFhbS9O7U46pDk4-8g-38">
          <mxGeometry relative="1" as="geometry" />
        </mxCell>
        <mxCell id="upSLq7r1C17GMmXVNGqP-29" value="PIM" style="image;aspect=fixed;html=1;points=[];align=center;fontSize=12;image=img/lib/azure2/identity/PIM.svg;" vertex="1" parent="v-qFhbS9O7U46pDk4-8g-163">
          <mxGeometry x="59.09" y="14.2997604784381" width="40.149772407828785" height="45.50365956216824" as="geometry" />
        </mxCell>
        <mxCell id="upSLq7r1C17GMmXVNGqP-32" value="" style="group;fillOpacity=100;" vertex="1" connectable="0" parent="v-qFhbS9O7U46pDk4-8g-163">
          <mxGeometry x="17" y="171.442439276645" width="576.63" height="1002.3919661468232" as="geometry" />
        </mxCell>
        <mxCell id="v-qFhbS9O7U46pDk4-8g-124" value="&lt;font style=&quot;font-size: 27px;&quot;&gt;SCHOOL AU&lt;/font&gt;" style="text;html=1;strokeColor=none;fillColor=none;align=center;verticalAlign=middle;whiteSpace=wrap;rounded=0;" parent="upSLq7r1C17GMmXVNGqP-32" vertex="1">
          <mxGeometry x="163" width="220.25" height="27.405551698817522" as="geometry" />
        </mxCell>
        <mxCell id="v-qFhbS9O7U46pDk4-8g-158" value="" style="rounded=1;whiteSpace=wrap;html=1;fillColor=none;container=1;recursiveResize=0;" parent="upSLq7r1C17GMmXVNGqP-32" vertex="1">
          <mxGeometry y="27.41" width="560" height="678.9739182578929" as="geometry" />
        </mxCell>
        <mxCell id="v-qFhbS9O7U46pDk4-8g-25" value="&lt;div&gt;Properties&lt;/div&gt;&lt;ul&gt;&lt;li&gt;Regio&lt;/li&gt;&lt;li&gt;School&lt;/li&gt;&lt;li&gt;pers/lln&lt;/li&gt;&lt;li&gt;functies&lt;/li&gt;&lt;li&gt;klas&lt;/li&gt;&lt;/ul&gt;" style="shape=partialRectangle;whiteSpace=wrap;html=1;top=0;bottom=0;fillColor=none;align=left;movable=1;resizable=1;rotatable=1;deletable=1;editable=1;locked=0;connectable=1;" parent="v-qFhbS9O7U46pDk4-8g-158" vertex="1">
          <mxGeometry x="133.7820782945737" y="21.351109080660297" width="121.846511627907" height="91.7373924058879" as="geometry" />
        </mxCell>
        <mxCell id="v-qFhbS9O7U46pDk4-8g-58" value="School-ICT" style="image;aspect=fixed;html=1;points=[];align=center;fontSize=12;image=img/lib/azure2/identity/Groups.svg;" parent="v-qFhbS9O7U46pDk4-8g-158" vertex="1">
          <mxGeometry x="43.578113953488426" y="250.97745679686528" width="36.69153844503359" height="30.217449820904754" as="geometry" />
        </mxCell>
        <mxCell id="upSLq7r1C17GMmXVNGqP-42" value="" style="edgeStyle=orthogonalEdgeStyle;rounded=0;orthogonalLoop=1;jettySize=auto;html=1;" edge="1" parent="v-qFhbS9O7U46pDk4-8g-158" source="v-qFhbS9O7U46pDk4-8g-56" target="v-qFhbS9O7U46pDk4-8g-121">
          <mxGeometry relative="1" as="geometry" />
        </mxCell>
        <mxCell id="v-qFhbS9O7U46pDk4-8g-56" value="School-admin" style="image;aspect=fixed;html=1;points=[];align=center;fontSize=12;image=img/lib/azure2/intune/Azure_AD_Roles_and_Administrators.svg;" parent="v-qFhbS9O7U46pDk4-8g-158" vertex="1">
          <mxGeometry x="167.26479883720936" y="202.58069809713055" width="36.62354918293656" height="36.62354918293656" as="geometry" />
        </mxCell>
        <mxCell id="v-qFhbS9O7U46pDk4-8g-59" value="" style="edgeStyle=orthogonalEdgeStyle;rounded=0;orthogonalLoop=1;jettySize=auto;html=1;" parent="v-qFhbS9O7U46pDk4-8g-158" source="v-qFhbS9O7U46pDk4-8g-58" target="v-qFhbS9O7U46pDk4-8g-56" edge="1">
          <mxGeometry relative="1" as="geometry" />
        </mxCell>
        <mxCell id="v-qFhbS9O7U46pDk4-8g-121" value="&lt;div&gt;Roles&lt;/div&gt;&lt;ul&gt;&lt;li&gt;&lt;span style=&quot;background-color: initial;&quot;&gt;User Administrator&lt;/span&gt;&lt;/li&gt;&lt;li&gt;&lt;span style=&quot;background-color: initial;&quot;&gt;Groups Administrator&lt;/span&gt;&lt;br&gt;&lt;/li&gt;&lt;li&gt;SharePoint Administrator&quot;,&lt;/li&gt;&lt;li&gt;Teams Administrator&lt;/li&gt;&lt;li&gt;Cloud Device Administrator&lt;/li&gt;&lt;li&gt;Printer Administrator&lt;/li&gt;&lt;/ul&gt;" style="shape=partialRectangle;whiteSpace=wrap;html=1;top=0;bottom=0;fillColor=none;align=left;movable=1;resizable=1;rotatable=1;deletable=1;editable=1;locked=0;connectable=1;" parent="v-qFhbS9O7U46pDk4-8g-158" vertex="1">
          <mxGeometry x="231.37637170542644" y="202.57594863518807" width="192.92364341085275" height="180.27817657746803" as="geometry" />
        </mxCell>
        <mxCell id="v-qFhbS9O7U46pDk4-8g-66" value="PIM" style="image;aspect=fixed;html=1;points=[];align=center;fontSize=12;image=img/lib/azure2/identity/PIM.svg;" parent="v-qFhbS9O7U46pDk4-8g-158" vertex="1">
          <mxGeometry x="172.50419883720937" y="288.8212789278014" width="26.65934510449322" height="30.217449820904754" as="geometry" />
        </mxCell>
        <mxCell id="v-qFhbS9O7U46pDk4-8g-67" value="" style="edgeStyle=orthogonalEdgeStyle;rounded=0;orthogonalLoop=1;jettySize=auto;html=1;" parent="v-qFhbS9O7U46pDk4-8g-158" source="v-qFhbS9O7U46pDk4-8g-66" target="v-qFhbS9O7U46pDk4-8g-56" edge="1">
          <mxGeometry relative="1" as="geometry" />
        </mxCell>
        <mxCell id="v-qFhbS9O7U46pDk4-8g-113" value="&lt;ul&gt;&lt;li&gt;School-personeel&lt;/li&gt;&lt;li&gt;School-leerlingen&lt;/li&gt;&lt;li&gt;School-boekhouding&lt;/li&gt;&lt;li&gt;School-leerlingensecretariaat&lt;/li&gt;&lt;li&gt;School-zorg&lt;/li&gt;&lt;li&gt;School-beleidsteam&lt;/li&gt;&lt;/ul&gt;" style="shape=partialRectangle;whiteSpace=wrap;html=1;top=0;bottom=0;fillColor=none;align=left;movable=1;resizable=1;rotatable=1;deletable=1;editable=1;locked=0;connectable=1;" parent="v-qFhbS9O7U46pDk4-8g-158" vertex="1">
          <mxGeometry x="145.00043565891465" y="392.7155690554923" width="192.92" height="100.69" as="geometry" />
        </mxCell>
        <mxCell id="v-qFhbS9O7U46pDk4-8g-76" value="School-devices" style="image;aspect=fixed;html=1;points=[];align=center;fontSize=12;image=img/lib/azure2/identity/Groups.svg;" parent="v-qFhbS9O7U46pDk4-8g-158" vertex="1">
          <mxGeometry x="43.58043565891478" y="540.9760503357923" width="36.69153844503359" height="30.217449820904754" as="geometry" />
        </mxCell>
        <mxCell id="upSLq7r1C17GMmXVNGqP-62" value="" style="image;aspect=fixed;html=1;points=[];align=center;fontSize=12;image=img/lib/azure2/intune/Azure_AD_Roles_and_Administrators.svg;" vertex="1" parent="v-qFhbS9O7U46pDk4-8g-158">
          <mxGeometry x="242" y="532.1600000000001" width="39.03" height="39.03" as="geometry" />
        </mxCell>
        <mxCell id="v-qFhbS9O7U46pDk4-8g-19" value="USER" style="image;aspect=fixed;html=1;points=[];align=center;fontSize=12;image=img/lib/azure2/identity/Users.svg;movable=1;resizable=1;rotatable=1;deletable=1;editable=1;locked=0;connectable=1;" parent="upSLq7r1C17GMmXVNGqP-32" vertex="1">
          <mxGeometry x="46.84000000000004" y="63.29126200976455" width="28.832734475850167" height="31.537035248400507" as="geometry" />
        </mxCell>
        <mxCell id="upSLq7r1C17GMmXVNGqP-5" value="" style="edgeStyle=orthogonalEdgeStyle;rounded=0;orthogonalLoop=1;jettySize=auto;html=1;" edge="1" parent="upSLq7r1C17GMmXVNGqP-32" source="v-qFhbS9O7U46pDk4-8g-19" target="v-qFhbS9O7U46pDk4-8g-25">
          <mxGeometry relative="1" as="geometry" />
        </mxCell>
        <mxCell id="v-qFhbS9O7U46pDk4-8g-18" value="Regio-school-lln-klas" style="image;aspect=fixed;html=1;points=[];align=center;fontSize=12;image=img/lib/azure2/identity/Groups.svg;" parent="upSLq7r1C17GMmXVNGqP-32" vertex="1">
          <mxGeometry x="39.54000000000005" y="155.93071668999843" width="36.136445329222695" height="29.760300868208933" as="geometry" />
        </mxCell>
        <mxCell id="v-qFhbS9O7U46pDk4-8g-72" value="User" style="image;aspect=fixed;html=1;points=[];align=center;fontSize=12;image=img/lib/azure2/identity/Users.svg;movable=1;resizable=1;rotatable=1;deletable=1;editable=1;locked=0;connectable=1;" parent="upSLq7r1C17GMmXVNGqP-32" vertex="1">
          <mxGeometry x="48.11043565891478" y="358.38434503847964" width="27.62630349876217" height="30.217449820904754" as="geometry" />
        </mxCell>
        <mxCell id="v-qFhbS9O7U46pDk4-8g-74" value="" style="edgeStyle=orthogonalEdgeStyle;rounded=0;orthogonalLoop=1;jettySize=auto;html=1;" parent="upSLq7r1C17GMmXVNGqP-32" source="v-qFhbS9O7U46pDk4-8g-72" target="v-qFhbS9O7U46pDk4-8g-58" edge="1">
          <mxGeometry relative="1" as="geometry" />
        </mxCell>
        <mxCell id="v-qFhbS9O7U46pDk4-8g-75" value="" style="edgeStyle=orthogonalEdgeStyle;rounded=0;orthogonalLoop=1;jettySize=auto;html=1;" parent="upSLq7r1C17GMmXVNGqP-32" source="v-qFhbS9O7U46pDk4-8g-72" target="v-qFhbS9O7U46pDk4-8g-66" edge="1">
          <mxGeometry relative="1" as="geometry" />
        </mxCell>
        <mxCell id="upSLq7r1C17GMmXVNGqP-43" value="" style="edgeStyle=orthogonalEdgeStyle;rounded=0;orthogonalLoop=1;jettySize=auto;html=1;" edge="1" parent="upSLq7r1C17GMmXVNGqP-32" source="v-qFhbS9O7U46pDk4-8g-108" target="v-qFhbS9O7U46pDk4-8g-113">
          <mxGeometry relative="1" as="geometry" />
        </mxCell>
        <mxCell id="v-qFhbS9O7U46pDk4-8g-108" value="Andere dynamische groepen" style="image;aspect=fixed;html=1;points=[];align=center;fontSize=12;image=img/lib/azure2/identity/Groups.svg;" parent="upSLq7r1C17GMmXVNGqP-32" vertex="1">
          <mxGeometry x="42.910435658914686" y="418.387327250785" width="36.69153844503359" height="30.217449820904754" as="geometry" />
        </mxCell>
        <mxCell id="upSLq7r1C17GMmXVNGqP-45" value="" style="image;aspect=fixed;html=1;points=[];align=center;fontSize=12;image=img/lib/azure2/intune/Devices.svg;" vertex="1" parent="upSLq7r1C17GMmXVNGqP-32">
          <mxGeometry x="133.78" y="558.98" width="55.56" height="49.03" as="geometry" />
        </mxCell>
        <mxCell id="upSLq7r1C17GMmXVNGqP-46" value="" style="edgeStyle=orthogonalEdgeStyle;rounded=0;orthogonalLoop=1;jettySize=auto;html=1;" edge="1" parent="upSLq7r1C17GMmXVNGqP-32" source="upSLq7r1C17GMmXVNGqP-45" target="v-qFhbS9O7U46pDk4-8g-76">
          <mxGeometry relative="1" as="geometry" />
        </mxCell>
        <mxCell id="upSLq7r1C17GMmXVNGqP-63" value="" style="edgeStyle=orthogonalEdgeStyle;rounded=0;orthogonalLoop=1;jettySize=auto;html=1;" edge="1" parent="upSLq7r1C17GMmXVNGqP-32" source="upSLq7r1C17GMmXVNGqP-44" target="upSLq7r1C17GMmXVNGqP-62">
          <mxGeometry relative="1" as="geometry">
            <mxPoint x="32.02000000000001" y="668.38" as="targetPoint" />
            <Array as="points">
              <mxPoint x="32" y="648" />
              <mxPoint x="261" y="648" />
            </Array>
          </mxGeometry>
        </mxCell>
        <mxCell id="upSLq7r1C17GMmXVNGqP-64" value="apply" style="edgeLabel;html=1;align=center;verticalAlign=middle;resizable=0;points=[];" vertex="1" connectable="0" parent="upSLq7r1C17GMmXVNGqP-63">
          <mxGeometry x="-0.1119" y="-1" relative="1" as="geometry">
            <mxPoint as="offset" />
          </mxGeometry>
        </mxCell>
        <mxCell id="upSLq7r1C17GMmXVNGqP-44" value="School scope tag" style="image;aspect=fixed;html=1;points=[];align=center;fontSize=12;image=img/lib/azure2/general/Tag.svg;" vertex="1" parent="upSLq7r1C17GMmXVNGqP-32">
          <mxGeometry x="15.930000000000007" y="748.38" width="32.18" height="31.62" as="geometry" />
        </mxCell>
        <mxCell id="upSLq7r1C17GMmXVNGqP-52" value="school user apps" style="image;aspect=fixed;html=1;points=[];align=center;fontSize=12;image=img/lib/azure2/intune/Client_Apps.svg;" vertex="1" parent="upSLq7r1C17GMmXVNGqP-32">
          <mxGeometry x="258.60999999999996" y="728.3800000000001" width="29.03" height="29.03" as="geometry" />
        </mxCell>
        <mxCell id="upSLq7r1C17GMmXVNGqP-56" value="" style="edgeStyle=orthogonalEdgeStyle;rounded=0;orthogonalLoop=1;jettySize=auto;html=1;" edge="1" parent="upSLq7r1C17GMmXVNGqP-32" source="upSLq7r1C17GMmXVNGqP-44" target="upSLq7r1C17GMmXVNGqP-52">
          <mxGeometry relative="1" as="geometry" />
        </mxCell>
        <mxCell id="upSLq7r1C17GMmXVNGqP-54" value="school device enrollment" style="image;aspect=fixed;html=1;points=[];align=center;fontSize=12;image=img/lib/azure2/intune/Device_Enrollment.svg;" vertex="1" parent="upSLq7r1C17GMmXVNGqP-32">
          <mxGeometry x="189.34" y="808.3875607233553" width="46.85" height="41.62" as="geometry" />
        </mxCell>
        <mxCell id="upSLq7r1C17GMmXVNGqP-55" value="" style="edgeStyle=orthogonalEdgeStyle;rounded=0;orthogonalLoop=1;jettySize=auto;html=1;" edge="1" parent="upSLq7r1C17GMmXVNGqP-32" source="upSLq7r1C17GMmXVNGqP-44" target="upSLq7r1C17GMmXVNGqP-54">
          <mxGeometry relative="1" as="geometry" />
        </mxCell>
        <mxCell id="upSLq7r1C17GMmXVNGqP-59" value="apply" style="edgeLabel;html=1;align=center;verticalAlign=middle;resizable=0;points=[];" vertex="1" connectable="0" parent="upSLq7r1C17GMmXVNGqP-55">
          <mxGeometry x="-0.5389" y="-4" relative="1" as="geometry">
            <mxPoint as="offset" />
          </mxGeometry>
        </mxCell>
        <mxCell id="upSLq7r1C17GMmXVNGqP-61" value="apply" style="edgeLabel;html=1;align=center;verticalAlign=middle;resizable=0;points=[];" vertex="1" connectable="0" parent="upSLq7r1C17GMmXVNGqP-55">
          <mxGeometry x="0.0581" relative="1" as="geometry">
            <mxPoint as="offset" />
          </mxGeometry>
        </mxCell>
        <mxCell id="upSLq7r1C17GMmXVNGqP-58" value="" style="rounded=1;whiteSpace=wrap;html=1;container=1;recursiveResize=0;fillColor=none;" vertex="1" parent="v-qFhbS9O7U46pDk4-8g-163">
          <mxGeometry x="99.24" y="889.83" width="202" height="195.62" as="geometry" />
        </mxCell>
        <mxCell id="upSLq7r1C17GMmXVNGqP-51" value="school config" style="image;aspect=fixed;html=1;points=[];align=center;fontSize=12;image=img/lib/azure2/intune/Device_Configuration.svg;" vertex="1" parent="upSLq7r1C17GMmXVNGqP-58">
          <mxGeometry x="22.440000000000012" y="130.00000000000023" width="41.96" height="46.03" as="geometry" />
        </mxCell>
        <mxCell id="upSLq7r1C17GMmXVNGqP-57" value="" style="edgeStyle=orthogonalEdgeStyle;rounded=0;orthogonalLoop=1;jettySize=auto;html=1;" edge="1" parent="v-qFhbS9O7U46pDk4-8g-163" source="upSLq7r1C17GMmXVNGqP-44" target="upSLq7r1C17GMmXVNGqP-51">
          <mxGeometry relative="1" as="geometry">
            <mxPoint x="49.02000000000001" y="839.822439276645" as="targetPoint" />
            <Array as="points">
              <mxPoint x="50" y="1025" />
            </Array>
          </mxGeometry>
        </mxCell>
        <mxCell id="upSLq7r1C17GMmXVNGqP-60" value="apply" style="edgeLabel;html=1;align=center;verticalAlign=middle;resizable=0;points=[];" vertex="1" connectable="0" parent="upSLq7r1C17GMmXVNGqP-57">
          <mxGeometry x="0.2623" y="2" relative="1" as="geometry">
            <mxPoint as="offset" />
          </mxGeometry>
        </mxCell>
        <mxCell id="v-qFhbS9O7U46pDk4-8g-164" value="&lt;font style=&quot;font-size: 27px;&quot;&gt;Regio AU&lt;/font&gt;" style="text;html=1;strokeColor=none;fillColor=none;align=center;verticalAlign=middle;whiteSpace=wrap;rounded=0;" parent="upSLq7r1C17GMmXVNGqP-33" vertex="1">
          <mxGeometry x="164.88" width="220.25" height="29.03754505107861" as="geometry" />
        </mxCell>
        <mxCell id="upSLq7r1C17GMmXVNGqP-27" value="USER" style="image;aspect=fixed;html=1;points=[];align=center;fontSize=12;image=img/lib/azure2/identity/Users.svg;movable=1;resizable=1;rotatable=1;deletable=1;editable=1;locked=0;connectable=1;" vertex="1" parent="upSLq7r1C17GMmXVNGqP-33">
          <mxGeometry x="205.98" y="59.69594042680792" width="32.04446043112829" height="35.049997737083174" as="geometry" />
        </mxCell>
        <mxCell id="upSLq7r1C17GMmXVNGqP-30" value="" style="edgeStyle=orthogonalEdgeStyle;rounded=0;orthogonalLoop=1;jettySize=auto;html=1;" edge="1" parent="upSLq7r1C17GMmXVNGqP-33" source="upSLq7r1C17GMmXVNGqP-27" target="upSLq7r1C17GMmXVNGqP-29">
          <mxGeometry relative="1" as="geometry" />
        </mxCell>
        <mxCell id="upSLq7r1C17GMmXVNGqP-35" value="" style="group;recursiveResize=0;" vertex="1" connectable="0" parent="1">
          <mxGeometry x="900" y="509.99999999999994" width="550" height="1180" as="geometry" />
        </mxCell>
        <mxCell id="v-qFhbS9O7U46pDk4-8g-161" value="" style="rounded=1;whiteSpace=wrap;html=1;fillColor=none;container=1;" parent="upSLq7r1C17GMmXVNGqP-35" vertex="1">
          <mxGeometry y="36.07000000000011" width="550" height="1143.93" as="geometry" />
        </mxCell>
        <mxCell id="v-qFhbS9O7U46pDk4-8g-167" value="Custom admin role" style="shape=image;verticalLabelPosition=bottom;labelBackgroundColor=default;verticalAlign=top;aspect=fixed;imageAspect=0;image=data:image/jpeg,/9j/4AAQSkZJRgABAQAAAQABAAD/2wCEAAoHCBIRFBISEhISEhMSEg8SERgSExMSFxIXGBcYGBcUFxgaICwnGh0qHhUXJDYkKS0vMzM1GSI4PjgwPSw0NS8BCwsLDw4PHhISHTQpIykyMi8yMjIyMjIyMjIyMjIyLzMyMjIyMjIyMjIyMi8yMjIyMjIyMjIzMjIyMjIyMjIyL//AABEIAOEA4QMBIgACEQEDEQH/xAAcAAEAAQUBAQAAAAAAAAAAAAAABwECBAUGAwj/xABAEAACAQIBCQUDCgUEAwAAAAAAAQIDEQQFBhIhMUFRYXEHEyKBkTJCsRQ0UmJyc5KhssEWIyRUgjNTosIX4fD/xAAaAQEAAgMBAAAAAAAAAAAAAAAAAQMCBAUG/8QALxEAAgECAwQKAwADAAAAAAAAAAECAxEEMUESIXGBBRMyUWGhscHR8CJC4RWR8f/aAAwDAQACEQMRAD8AmYAAAAAAAAAAAAAAAA4rPTOiphpxw9CyqOKnOTSeineySe/VfzRKV2V1asaUdqR2oIa/ivHf3E/RD+K8d/cT/Iy6tmn/AJGn3Py+SZQQ1/FeO/uJ/kP4rx39xP8AInq2P8jT7n5fJMoI8zPzurVa0KGJan3l1TlZJxkk2k7bU7etiQzBqxt0a0asdqIABBaAAAAAAAAAAAAAAAAAAAAAAAAAAAAAACF86sT3uMxM9q09BdIJR/6kwYzEKlTqVHspwnN9Iq/7EEuTk25a223Lm3rbLKa1Ob0jPdGPP/W73DKMqWlpyQGAAe2BxHdVaVT/AG505+kk/wBieIyTSa2NXRADJrzYxXfYTDzvd92oSfGUPBL84srqLU6fRst8o8H7fBtgAVHVAAAAAAAAAAAAAAAAAAAB51JqKcpNJJNtvUklrbYB6A4+tn5hozcYwnOKdtJWV+aT3ehtsBnLhK9tGtGLfuz8D6a9T8mS4tFMcRSk7KSN0CiKkFwBZKSSbbslrbeqxyWXM9qNG8KFq1TZe/gj5r2vL1JSuYVKkaavJ2PbP3Kao4WVJP8AmV/BFb9G/il0tq8yKzJyhj6mInKpVk5yl6JbkluRjF0VZHCxFbrZ300BaXFpka4AAAJF7NcpxlSnhpO0qcnOCe+MvaS6Su/8iOi/D15UpRnCTjKLvGUdTTIaui6hWdKakT6DhMg5+QnanikqctSU4rwv7Ufd8vyO2pVYzipwkpRkrxcWmmuKaKGmszu0q0KqvFnqACC0A1GUM4cJh795WjpL3Y+OV+Fo7PM0P/kTC6Vu7qaF7aXhv+H/ANk7LZTPEUoO0pI7UGPhMTCtCNSnJShNXi1vRkEFydwAAAAAAAAAcR2g5Z0IRwsH4qivUtujuXm16LmdXlLHQw9Kdab8MFd8W9iiubdl5kL47Fzr1KlWbvOcnJ8uEVySsvIzhG7uaOOr7ENhZv0/uRji4BecY2GAy1icP/pVZxX0b6UfwvUb+ln9ikrOnSk+LU031s0jkAYuKeZbCvUgrRk0bfK+ceJxXhnPRh9GHhj58fM04KEpWK5SlJ3k7sAAGIZaXFGAUDAYBQBlGCAbLJOXcThH/Km1F7YS8UH5P4mtDBKk4u6dmdk+0PFWt3VFPjafrtNDlHOLF4i6qVp6L92Pgj6LaaooyFFItniKs1aUn94BlCpQyKDuuzfLehOWEm/DNuVG+6fvQ80r9U+JJZ8+U6koSjOLcZQkpRa2xad015k25uZWjjKEKytf2aiXuzW1dN65NFM46nY6Pr7UeremXD+G2ABWdIAAAAGDlbEOlQrVYq8qdKpOPWMW1flqAbtvOD7Qcs95UWFg/DSelUt707ao+Sfq3wONEpOTcpNuUm3Jva29bbKGylZWPN1arqyc3qVBQAwKlAUAKlGLnb5n5qqSjicTG6dpUoSWprdOS4cFv2shuxZSpSqy2Y/8NXm/mnWxSjOb7mi9ak1ec19WPD6z1dTSZUoxp1q1ON9GnUnCN3dtRk0r89RNxCecL/q8V9/W/WzCMm2buIwsKVNWzvnyMMFsZFxYc5qwAAIKJXa6o63ODMmpRTqYdutTWvRt/Mgui9pdNfI5KO1dV8SeTCcmrG9g6EK0ZKXhbzIFuUJJzvzUVZSxGGilVV5ThFWVXi0t0vj1I2Moyua9ehKjK0uT7wUZUoSUFGAAAzpcxst/JcQoTdqVdxhO+yEvcn6uz5Pkc0UYavuMqc3TkpRzR9DA0WZ2MnXwdCpPXK04N8dCcoJ9bRXnc3prHpYSUoqS1AABkDznBSTjJJpppp6009qZ6AAifOvNaeEbqUk54dvbtlRv7s+MeEvJ8XzJPU4KSaaTTTTTV009qaI1zuzRdDSr4eLdHW6kFrdLnHjD8102Wxnozk4rB7P508tV3cPDw04ZceACw5wAKfn+5JFzpMzMiLFVXOor0aNnJPZOfuw6b35LeSmazN7JqwuHp0ra9HSqc5y1v02dEjZmvJ3Z6DC0eqp21ef3wBCWcPzvFff1v1sm0hHOH53ivv6362TDMqx3YXH2ZgouiyxFS05MkehQJgkqYjtXVfEnkgWO1dV8SeiupodToz9+XuCNu0HISpTWLpxtCpK1ZJaoVHsn0lv59SSDHyhg44inUoz9mpBxfK+yS5p2fkYRdnc3q9FVYOL5cfu4gy4K16M6U505q04TlCfWLs7ctRQvPOyi095QAAgob7NjNqrj5X1woRdqk7beMI32y/Jb9yeTmlmnPGtVaulDDRet7JVWtsYcuMvJa72ljDYeFKMadOKjCKSjGKskjCU7bkdDCYPb/OeXr/PUtweFhRhClTWjCEVGK4Jc95kgFJ2QAAAAAAAACIM9MlRwuJagtGnVjpwS2Ru2pRXJNXtuTSNAdv2oe3hfsVfjA4YvjkeexUVGtJLv9VcuNrmthe+xmHg1dd46kukE5a/wpeZqDq+zqF8VJ/RoTa9Yr92TJ2RGHjtVYrxRJoANc9ECEc4fneK+/rfrZNxCGcPzvFff1v1szhmaWO7C4+zMFFS1FS05LKouuWoqSYNXKx2rqviTyQNF611XxJ5K6mh0ujP35e4ABUdQibtDwnd4yUkrKtThPz1wl+hPzOaizuu1SHiwkuMcRF+Tg1+pnBovhkcLFxSqyX3JM9DaZt5N+V4mlRd9CUnKdtXgitJq+69rX5mpizruzb54/uavxiTLcimhBSqxi+8lSlTjCMYxSjGKUYpKySWpJLcj1ANc9GAAAAAAAAAAAARx2o+3hfsVfjA4Y6ntByjGtidCLuqENBtbNJu8vTUuqZyxfDI8/i2nXk19srA6zs4nbEzX0qEkuqlB/szkzc5n4rusbh23ZSlKEv8AOLiv+TiTJXRGGls1ovx9dxL4ANc9CDS5WzXwmKvKpTUJy1udP+XNvi7apPqmboC5jKKkrNXIzypmBiIXlh5xrx+jK1OfTX4Zeq6HJYrDVKUtCpTnTmvdnFp9VfauZPJ44rC060dCrCFSHCcU11V9jM1O2Zp1MDGW+Dt5r5IKo05TkoQjKc3sjCLlJ9EtZ1OS8xcVVtKq44eP1vHL8CerzaJIwGT6OHjo0acKa36EVd9XtfmZRLm9DGn0fFdt38vvkc/krNHCYez7vvZLXpVfFZ8o+yvS5vwDBu5vQhGCtFWAAIMiPO1SfiwceCxEn5uml8GcEjqu0jFaeLVNO6o06cHylJub/KUfQ5UvjuRw8W71ZP7lYqdd2aP+sf3NX4xORN1mhlKOGxdKpJ2g3KNRvYozVtJ8k9F+RMluKqElGrFvvJuBQqa56EAAAAAAAAAHCZ3Z4qnpYfDSTnrjUqLWocYx4y57vhh5354aWlh8LK0fZqVF731Y8ue/pt4UthDVnLxeN/Sm+L+Pkq2CgLDlAJtNOLs000+DWtMFCQTbkbKCxVClWVvHBaaXuzWqcfKSZmkZ5g5cVCo8PUdqdaS7tvZCpsXk1ZdUuJJhrSVmeiw9ZVaalrrxAAILwAUAAAAAAAB5YrEQpU51KjtCEJTm+Cirs9SPe0jLy1YKnLfGeIa3b4U/hJ/48WSlcrq1FTg5HD47Fyr1alaftVJym1ttd6o9ErLyPAoipsI4Em295UAArO6zOzy7rRw+KlenqjTqPW4cIy4x57umyTIyTSaaaaTTWtNcj55OvzQzwlhXGjXbnh27Re2VHmuMeXpzrnDVHQwuN2fwqZaPu4+Hjp6S0DzpVIzipRalGSUotO6aetNHoVHXAAABr8tRnLD14076cqNRQttcnF2S5mwAIaufPqB1OfuRfk9fvYK1LENy1bIT2zj5+0ur4HLGyndXPNVKbpycXoAADAAAAoySczc6VWUcNiJWqpKNOcn/AKq3Rb+l8epGxRkSjcvoV5UpXRPhQjfN7PmdJRp4tSqU1ZRqLXUivrr31z29SQ8LiadWMalOSnGSjJNcGrrVu1FDi0dylXhVV4vlqeoKgguKAqACgLak4wTlKSjFbXJ2RH+cPaAvFTwSd9adWatb7uD+MvR7SUrldSpGmryN3nfnVDBxdOm1PEzXhW1Uk/fnz4R39CJJSlJuUm5Sk3KTk7uTbu23vdxKUpNyk3KUm5SlJuTk3tbb2sFyVjkV67qO7yCLi0uMjVKAAGJUA3eaORXjcRCLX8qFqlZ/VT1R6yerpd7g3YmEHOSis2SbmNCawOHU73am4326EpycP+LTXJo6EtjFJJJWS1JLVYuNZnpIR2YqPduAABkAAAazLuS44uhUoysnJXhL6E1rjL128m0QliKMqc5wmnGcZShNPc07NH0ARz2k5Es44ymtT0ade3HZCo/yi/8AEspys7HPx9Haj1izWfD+HBAoC04xUF1GnKpJQpwlOT2RhFyk/Jazc080coySksNOz2aVSlB/hlNNeYujOFOc+ym+CNIDJx+Tq2Hlo1qVSm3s01ql9mS1S8mYoMWmnZhkvZMwunhsPJNxmqFK0otp+ytV1uIhZNmQl/S4b7il+lGFQ6XRnalyMNYyvTdm1K3046/VWL1lia204vpNr9jY4jDKa5rY/wBjWSoWdmtZSdYveWJ7qS85t/8AU8amUq0tmjD7Mbv1lf4F3clFSAMKpCU/FOUpPXrk27dOBEaJr7vU+jIViW09Tn499nn7FyAR74PCVK0+7pU51J/RhFtpcXbYubLMjmb27I8C43sszcpJX+Sytt1VaDfop3NNisLUoy0KtOpTlwnGUW+l9pCaYnTnBXkmuKPEuLSpkVD/AO1E05nZE+RYeMZL+bUtOs+Da1Q6RWrrd7zhuzrIff1vlFRXp4dpxvsnU2xX+PtddElopnLQ62AoWXWPXIAArOkAAAAAADHxWHhVhKnUSlCcXGSe9MyAARvX7N56b7vEx0L6tOm3OK4OztJ89RuMnZgYSnZ1XOvL6zdOP4Y6/JtnYAyc5PU1o4ShF3UTGwmDpUY6NKnCnHhCKivyMkAxNkx8VhadaDp1IRnB7YySkn67zgMvdn8lepg5XW10qkta5Qm9vSXqSOCU2imrQhVVpL5PnytSlCUoTjKEotqUZJxcXwaZNWQfmuG+4pfpRou0XIqq0XiYxSqUdHSaXtQbtZ/Zbvfhc3uQfmuG+4o/pRnJ3SNXC0HRqyj4KxsDyrUlNc9zPUFZ0DWyhbUymiZ9SmpdTG0LAHi46n0ZB0FdpJNtuyS1tt7ElvZO0o6n0ZxXZhkOEtPGVIpuM3ToJr2Wvbn11pLh4iyDsmaeKpupOMV4+xjZv9n9Wrapim6EHZqEbd7L7W6C9XyRI+TMm0cNBU6FONOO+2tt8ZN65PmzOBi5Nl9KhCn2Vz1+8AeOIw8KkXCpCE4vbGcVJPyZ7AxLTkso5hYKrdwjKhJ76cvDf7ErpLkrGg/8Z1NK3yqn3d9vdS0rdNK1/MkwGSk0a88LRm7uPt6GBkjJtPCUoUKSajBbXrcm9blJ8WzPAMS9JJWQAAJAAAAAAAAAAAAAAAAAAMPKWH76jVpf7lOpDppRa/cwsgr+lw19T7ilfl4UbkxKdNQSgtkdS5LgDG2+5cAAZAtnC5cADGnHU+jMLMrCdzgcNHfKn3rvtvVbqa/xJeRtJxumuTR70qajGMVqUYxiuSSsib7rEbN5X+6fB6AAgkAAAAAAAAAAAAAAAAAAAAAAAAAAAAAAGLUei3dOz1ppN+TtsMoAGB8qp/TQ+VU/pozwAYHyqn9ND5XT+mvzM8AGHGenqjdre7NJLq9rMwAAAAAAAAAAAAAAAAAAAAAAAAAAAAAAAAAAAAAAAAAAAAAAAAAAAAAAAAAAAAAAAAA//9k=;" parent="v-qFhbS9O7U46pDk4-8g-161" vertex="1">
          <mxGeometry x="80" y="33.929013925233605" width="60" height="60" as="geometry" />
        </mxCell>
        <mxCell id="upSLq7r1C17GMmXVNGqP-40" value="" style="group:recursiveResize=0;fillColor=none;" vertex="1" connectable="0" parent="v-qFhbS9O7U46pDk4-8g-161">
          <mxGeometry x="17" y="133.9264905607476" width="516" height="971.441308411215" as="geometry" />
        </mxCell>
        <mxCell id="upSLq7r1C17GMmXVNGqP-37" value="" style="group" vertex="1" connectable="0" parent="upSLq7r1C17GMmXVNGqP-40">
          <mxGeometry y="41.33000000000001" width="516" height="930.1113084112151" as="geometry" />
        </mxCell>
        <mxCell id="v-qFhbS9O7U46pDk4-8g-160" value="" style="rounded=1;whiteSpace=wrap;html=1;fillColor=none;container=1;" parent="upSLq7r1C17GMmXVNGqP-37" vertex="1">
          <mxGeometry y="-10" width="516" height="940.11" as="geometry" />
        </mxCell>
        <mxCell id="v-qFhbS9O7U46pDk4-8g-127" value="" style="shape=image;verticalLabelPosition=bottom;labelBackgroundColor=default;verticalAlign=top;aspect=fixed;imageAspect=0;image=data:image/png,iVBORw0KGgoAAAANSUhEUgAAASgAAACrCAMAAADiivHpAAAApVBMVEXG2vv////u7u5fl/bt7e339/f09PTx8fH6+vr8/Pz///3G2/tfl/VZk/bD2fvw7+2kwvno6/DK3vxWkvfT4PXD2/vJ3vpelviqyPhXlPP3+v7a5/zR3/ju9Pzp8PzE1/yNtPdnnPVxovi60vuGrvfk7v7E0/Ha5PPk6PHo8P3Z5Pydv/iSt/iHsfnR3fmUuvd3pvZwofm0zfqdwPb49u9wo/S1y/CWujvKAAAQ9klEQVR4nO1dC5viqs+vtd6gpUq1HbUzHS/z1925rjuz3/+jvdBWp9grAa27581znrOHowvhZwgJIcHoxNQzOVmjuDGy4sYw+Shp9JJG/DWznzQGcWOQNPrJR0J3SWNY13cfIdRZ3O920/CNYmwwwtT3w+l0d7/gn/UtV6I7zaym3RltA+Wak/0yNAiJCCF4ZsQ4GRjPMDHY/yXECJf7iQzu/xRQvDvU6biTXYg5GLMYHoMkMCWEj/9iIBrhbuJy4eqg/xpQCI0elgwDoyFFEVnejxhUPeuvAcpSHt0cjh5CBhI2cD1EJ2KiFz6Mhu0C1XB0SwDKyo5uZUe3sqOLfbuW6+6nBjGkQEq/zMCd7ples2R/0zyrVj2rAlC9hPoxKTQa/6Vef4kbL7hCuaK7QQ/EnSyr2YaRB97KAm81kJHGC5V9OFgsjZmUKBVhZSwXA2YxWJasOJezalXCYJpG06VcM7qZHd0sVBP8o8m0ufquFqtw4roXY1WA4epAudpgYhQZHKp/DyjEJWpKItVF901syyRTy427/oeAYmbTLpppQ+kIFt4xwwpdBygrpvQbZtxIvzGIG6fRYzqOHtNx9JiOo8fUy3YX931PCdYnTgmx/oh/H0uUJlaLZp70bRmjmHoDTmbSGJpxY9iJW0mjFzc6ydf6mcZgkDT6mcZ5d6451aWbckSmrHt9rJbNfCRpcMZSKGuZu3slw6mGImPvQliVNTiFmen3C5gKGbK9TveqyxBmSv1GfT2p0dGCRpdDKSFC42OrmwNKZumhH9ElxSklPHvgu98NOcXi6HVOMfuZl1eAiRtVZMmQUmA1BapCR2V3vcEw0f0FjV7yvaTRTxr9fGMgdjd8I9qNpzKs3obDQR/MajkMaXcVdlTeODEljZPJJXe7c5rhCfpmVcHkK7Gjmi5leXMX3V8RJk44Nj7/Ohfm6jgxTRUj9ZcBhR40esDNCBuEbX5/GVAMpyvDFEPFkEJXd4qVPM2Hq5gFOSIMqQsp82FMyfnwIGkMk0Yv0+j3Rvy/RwWN/ijztbTRY+vu2hoqpegh4VvgTmS1l28MSmFIJzsUDc5ORkIbWuZW0UK9uh7/plmU7H1VrIKiMOnXzfw34L7eop11d6QFas5qq07xqFWY2ObHA8q3AFSNU4xoewuPUzR7Q5eTqBqnuMEuehwd/ZxJBoE1E8bkp4REQXSUOcrgmpobI1MOKPTj6oZmnsgPJCdR4sxHBTPXbkft2113CeForz24AFrKZeYu6ljGtc5VKolQC1WzKqtTtLowqIPCm8CJIRUipAmoS/h66GHWrgn1TeSHLom6AFBo1DY834QTu/NqTrEpc8KJwlvQ5CnFNoKKUyzsadbxIpk69Xs9xSOD+Eowpox8SpWBwuRB29wYGRmBsU5OsQC8mQE+aZwkNAu8a1qG0hnUDPuU3D2/vG63ry/PdxH1FdUdditlpGDmZ/KXnblGX89Vu2BA6eFxNXccZ97tzueBE6wfD1hFsDCZujfpFFtwk5zMKHlfOUHQzVLgrN4NqnAJhkzcG3SK3TewCUV8492ed+3uOQVB8K7iN4ZXB6p2F0X9/Qw2Jcz0993K6do5nJh82V1ndeeDhSqaqF+JPz89yCvzUQpUdhcVjImshkQ9HzgZBtWrl5Olb7K9V3DX+E1OmVfMHG5HmYJxYoJPf/Fs7a3KcQpse/4LfOGa3Js5Vps6xWd2VJV6lpBQ9w02F4yJ3V0F5UDxBRmsIqhQvbmKOkW3UzyBCRQ2CNPitRR0oaZstHdzWqdNX88NgQoXr4L8ZldAK+jqC033loACCRQmxP9oIE+xTH0A7fTZRJNE5ZW5Ka3MXXcKmoRP3+cV6kkg7x1mpc+mWYmqUebZPdI8U+ZpODQbG+1nw6YVjd53A+bk4Y3jNFp4XW4lbOSy+050xurZZMsb4mRl7SjzHHi+i6IfMFVO103liQEVfPkgoPi9DR12VPr1/IYv4eshHwQUvnMa48RF6g4kUMTnQJUrXzOrfAtg0AcUgobQacMdLwWq+wsWWSWLm3GKn0AToHdegR9cQc4BZHaSpxuRqA6iEIHy3z5kBIoDtQVtfJjqBKqpMs/totYALUACNTNkNFSCFMyUYmsPdsIpKHPhOnbB3ez669juErbnSanymKDqfJeyOiq4M19+K12c7FnydUMJFSxzF+aw0sfmtsGRXkHnnZi66td0NLgwQH+YfskDtQYeDN+Grwe8lkEbenlZCmC2OdmPUPtAoSnIisKk6lizhJwNTJ1PkW6grPw3aoGiMKAOnpxxkAIFM22zEgVLGzPkdH/BrreARamY/wIA6gA0EHqlmWK1uVjHXe8oMEA7yoXeHIMBdQeTKLJv3ykGHkVBgYIdSpGdW6p8zaxOKYBBG1AhEKgDYNdzDsBtL2wfKBN4lo03EKA2wMFo+XZ+QaAEA3YCY50xDzEPoL8KmegCKrv7y1Qkg98CphVRz2Kyg5Xvww6dozjEIBTGks2FKT8srj1Aj//SAzhC/Crtwsxh5ywGPw+WOSYvPDPPL6bCfKky4NETkHWDPksrKWcMDq0/8aJAsLQxPS4MAp6x8EvzskrKdsA3+sgSoXZ9PfQGvmbnr2Ul6gt+YyZEnZaBggVgDL5ljyXXnvMbfqeMXhKoRk4x+JYlA9iWU+e2wuU7jIp1lH6JyjaySUhg3rFB36VEygEG1RPiyY5KuTBHgYEGFxR4x0b+OmIVqaTZ4InZrlMMNswNngIlE1/w7kBRsSNNyqp2mlmdUgCDLqBU7pbP6EezIwT2JecDvuUZ8U3qvxgog99LbEi2Wn5bK0BZ2oAy6KHhxjcHnht8A1W5S12+TLciUJjeNTg6t1UVVCxRllqBCMWkI9WaGYSOaxW6HTiqOBnkXjW7KreY5Mp0w+4dZMm/qxEpZpYeqJIm50AtZJxi6xwGdRcGGIPJEt6sKoSKidN6owoTA2rYslO8UJ4C0+j4cV56AyiYP2J1nAw8ahko9TosGDNnZvPFz1wKDPX514HqKMzROlBwX08g37/7cM49v2DufNz5miq9dFSBErw3QJlu8DGLQIRgunn55Z1yG4PAcdYvG7bZ6akPQDmvSpU0UhzMbxlJi5Ic+zMrgXffdEwjJkyNzfjx42tlr1a/Pl7GG6pqE2QoTh6SNDiFmata5q7eDH6eoo6TP7FGmAxj6rqWCJQlzDyvUzT7etCIejHhODmBA6T8JIpIZGe27BS7O60TuhTNdoClpzdSfBNlkGop2puagGroFItA8Y8UveLrEI6EkHqzG3JnQNUlT9VGV2+kuk8lYQpIGxMnq/p2FULqVVQuTzisvZpo5WAwMzBoiOvBQ8VXJF4/v9OuC4MQ+JbGFSmuSt0yUBpOpC5PPBOtZaDY6Ib2t5b000UrkjV8uwqFt1LWrpwSXa5WprvgGrnwikf9dWxYWmOOsHF6o5iLKMbxK6F6ziaeGr7iUTFz5berrIEeJcV8YF6yDcePOBOGE/eLsVKlrRORhWj3mBk1csUy3UpFlNNXm6kRHcbvjx9f65XNabX69bV9fB8fSHyQYCQyBh4EiUkbgvLNonbhVNkleAK8dhSNDs+vX6u555xVJONnd46z+np9PhAOluyDvSciy9tIvkb3wPIQlJ/UbX91vblTGi+27S5DK1i/jjfgGAO5b/vtqnR0JPtL86/7lIy3K4ZBZab66bPA8Vav44jSmSErWNg4T74GOcUKu94g/UvSXgz2/c3L2mlcl+UE1nz9vqFY8t0L5r+IGx1s1yu3o5qX6ZY7k6I8jFAjSWXLsDt3fr1s5Ar/8NSqWynT3XQT95liIuO1I52fLgrWekwkzAZ8tphaLNPt/mwmUjwm9diVXXF5yeo63cdNU6h42dLbSL7ml38a7XvYP3wETlcVp0SqnI8DxY30+uSGgGoS3aP+5qPcDIBg9XHwa/U6JlRT6TYdytxtEGKg0RaiwKuQ6jqvs9oFONu7lva3q4oKd9UeoMfHzQhXOhgR9p81QhSTzXbBwHmOw6QVY/vNMsXqYBgW3zM3s8A3KtP9o/Iuqr9ZK210ZRTY3jqqFCr+8MkZq+2W6a60zulYsgBSU4oNq+priwjltY6gfM2s8i2AQTdQT6Ub34y+X0ScjuS9UFryeC0hT3lW2y3TjUrje9ivrJmsToFTWnUZGzdYpntXVKYbM3naenIpL/I035Y4NWSn/jJQfUWyImVuFpaXTEYv3Pd846WqtrQmcl6KNTo2C1kFKfNyO6phcOEEa2GAr9GFe3XyCktskPu2367KL1Rm7qIC8xzP5l2tVmYxsRHyhhw23jqomNV0qTTRKfrfrkKdRZSTKfp6FYFii+81L1JkeJtPMhVcQ8ARoFINjOa5zID4wsEtAsVrbomszozLWlACUC9nOM1wRytQ5cpc6s2F5O2qsxQiLF9WBE6rs1+J3Ku9XXVeplsx6Uik4VS0kCONxyo1FNhiZH/2c6h1ag2Sr8ud4rxxYtIsUvhwWZtcIO+srFvt+2YFMx+KM8+KnOZ3il1h8eH6XDx95AhlX8miqfI1s8q3AIbLAGWip2xA96pAZSrcYOYM3wBQlQVz0c+MrrguUN/anEwln9+9nlN8kqjOKPOubFtA0cs9EV6hzLMqTTAmSjQkz3XEbQI1Mxb8IWCAMhdmflamuw74QRb4gtosxySkTC7Wd6ShJYmKXxcaNWH1tFQGWRiEmQu+nlKZ7txCdXekNaAwU+Rx3kszVpvvUnrfKU5HP0WOW5CoWbSr+U1vwNf7/plS97gFoMiy51p/C1Bs9ESmrg8UWSJZVmWAEpJAYPetzhY+ipG6OlBk2akFqjwXprJMdzYcOkoDqqN8IwmbDpKv9QaZ6OpwkA2onhoojK7swjDLnEzPYr8jIRBcwmpmsgUwAN+uam6cuOHsykBRMuXBj/LbBK2W6S43JtzpdZfe7yjOsIaw2oJTnO3OffrtXCiWXgTU8w8XzGq7QFnopyf1jpcSeUukwGrLQKEn+0qLz1k9IBVWGwNVoNKKjpbrlHkuXDr6kHzyTJ4C9o+3HSJUezVMNlIsKHPhMnVBElK/4Dq2+HZV5dMY/c+xd/mDc2/8Ofhs8MxWOau1M1ct012/UD/DbtF78tooYMsu/DRNS53V4rOBy7ow2dGHjxeMMdi29zj61MNqG75ednSEaPdiOt3p+ggN/g2gOggt3r1A+y0pmy0774VrcX2sgoACO8X50RFafulefza/6rpEvCabTlY7JU5xNl+qkzY6caNvxq2k0Ysb5ijXGI2SxjDTSLcSoTvU/9PVC1Uw7/7pM5wqWR3mWT1udKWsdtL0KwGGyznF58YJW393c22XW+yuN79bqJh8t+MUn5m7TJeg+3EAeF8oT2zRzccL1uFlWL26CyMC1eGqavHb9tQyPdieEHg2h6nzbwIV942QO/mz9hTEiq05b/1n4qJLs3rpkHoNUCPXdN3w0YH6NYHnvIQu6+Tiv6nmMt3ntYeF7tLRc327bj/aenwJSrzjYXdtx3G2Ud91Ab9pnlXg21UJCY1e+UeQxlnrc/9n63gSV2E5Sn8mw8+rs5qemecXk1RFMukCJce++RK0wvHa83gaX3CqE5z8EbdsO0414wWoPe/rOZy4TJiq3pfSxmrBUrmKC1PQdzoztg2G423Xc+bsHwYK29ESxOKdMeDFNDyvu70L+SbXKqutAmUxoDh97sM/z9tfgXdG3fX2+fA2cT/5l459/zeB4oR6lsuJYXH/tAz/F1O4fLrnxkS82uLu0H8eqGPfiWUUY+OmZpLY3f8DVaBwRwXdtQrU/wFJ1TP6ZJ7L9gAAAABJRU5ErkJggg==;" parent="v-qFhbS9O7U46pDk4-8g-160" vertex="1">
          <mxGeometry x="32.999999999999886" y="73.62307228915662" width="51.93" height="30" as="geometry" />
        </mxCell>
        <mxCell id="v-qFhbS9O7U46pDk4-8g-142" value="&lt;div&gt;Properties&lt;/div&gt;&lt;ul&gt;&lt;li&gt;Regio&lt;/li&gt;&lt;li&gt;School&lt;/li&gt;&lt;li&gt;pers/lln&lt;/li&gt;&lt;li&gt;functies&lt;/li&gt;&lt;li&gt;klas&lt;/li&gt;&lt;/ul&gt;" style="shape=partialRectangle;whiteSpace=wrap;html=1;top=0;bottom=0;fillColor=none;align=left;movable=1;resizable=1;rotatable=1;deletable=1;editable=1;locked=0;connectable=1;" parent="v-qFhbS9O7U46pDk4-8g-160" vertex="1">
          <mxGeometry x="143" y="22.653253012048193" width="120" height="135.91951807228915" as="geometry" />
        </mxCell>
        <mxCell id="v-qFhbS9O7U46pDk4-8g-143" value="" style="edgeStyle=orthogonalEdgeStyle;rounded=0;orthogonalLoop=1;jettySize=auto;html=1;" parent="v-qFhbS9O7U46pDk4-8g-160" source="v-qFhbS9O7U46pDk4-8g-127" target="v-qFhbS9O7U46pDk4-8g-142" edge="1">
          <mxGeometry relative="1" as="geometry" />
        </mxCell>
        <mxCell id="v-qFhbS9O7U46pDk4-8g-132" value="School-ICT" style="shape=image;verticalLabelPosition=bottom;labelBackgroundColor=default;verticalAlign=top;aspect=fixed;imageAspect=0;image=https://seeklogo.com/images/G/google-groups-logo-F42B19A01D-seeklogo.com.png;" parent="v-qFhbS9O7U46pDk4-8g-160" vertex="1">
          <mxGeometry x="33" y="311.48" width="28.52" height="28.52" as="geometry" />
        </mxCell>
        <mxCell id="v-qFhbS9O7U46pDk4-8g-128" value="Regio-school-klas" style="shape=image;verticalLabelPosition=bottom;labelBackgroundColor=default;verticalAlign=top;aspect=fixed;imageAspect=0;image=https://seeklogo.com/images/G/google-groups-logo-F42B19A01D-seeklogo.com.png;" parent="v-qFhbS9O7U46pDk4-8g-160" vertex="1">
          <mxGeometry x="34.93" y="183.77" width="26.23" height="26.23" as="geometry" />
        </mxCell>
        <mxCell id="v-qFhbS9O7U46pDk4-8g-136" value="Custom admin role" style="shape=image;verticalLabelPosition=bottom;labelBackgroundColor=default;verticalAlign=top;aspect=fixed;imageAspect=0;image=data:image/jpeg,/9j/4AAQSkZJRgABAQAAAQABAAD/2wCEAAoHCBIRFBISEhISEhMSEg8SERgSExMSFxIXGBcYGBcUFxgaICwnGh0qHhUXJDYkKS0vMzM1GSI4PjgwPSw0NS8BCwsLDw4PHhISHTQpIykyMi8yMjIyMjIyMjIyMjIyLzMyMjIyMjIyMjIyMi8yMjIyMjIyMjIzMjIyMjIyMjIyL//AABEIAOEA4QMBIgACEQEDEQH/xAAcAAEAAQUBAQAAAAAAAAAAAAAABwECBAUGAwj/xABAEAACAQIBCQUDCgUEAwAAAAAAAQIDEQQFBhIhMUFRYXEHEyKBkTJCsRQ0UmJyc5KhssEWIyRUgjNTosIX4fD/xAAaAQEAAgMBAAAAAAAAAAAAAAAAAQMCBAUG/8QALxEAAgECAwQKAwADAAAAAAAAAAECAxEEMUESIXGBBRMyUWGhscHR8CJC4RWR8f/aAAwDAQACEQMRAD8AmYAAAAAAAAAAAAAAAA4rPTOiphpxw9CyqOKnOTSeineySe/VfzRKV2V1asaUdqR2oIa/ivHf3E/RD+K8d/cT/Iy6tmn/AJGn3Py+SZQQ1/FeO/uJ/kP4rx39xP8AInq2P8jT7n5fJMoI8zPzurVa0KGJan3l1TlZJxkk2k7bU7etiQzBqxt0a0asdqIABBaAAAAAAAAAAAAAAAAAAAAAAAAAAAAAACF86sT3uMxM9q09BdIJR/6kwYzEKlTqVHspwnN9Iq/7EEuTk25a223Lm3rbLKa1Ob0jPdGPP/W73DKMqWlpyQGAAe2BxHdVaVT/AG505+kk/wBieIyTSa2NXRADJrzYxXfYTDzvd92oSfGUPBL84srqLU6fRst8o8H7fBtgAVHVAAAAAAAAAAAAAAAAAAAB51JqKcpNJJNtvUklrbYB6A4+tn5hozcYwnOKdtJWV+aT3ehtsBnLhK9tGtGLfuz8D6a9T8mS4tFMcRSk7KSN0CiKkFwBZKSSbbslrbeqxyWXM9qNG8KFq1TZe/gj5r2vL1JSuYVKkaavJ2PbP3Kao4WVJP8AmV/BFb9G/il0tq8yKzJyhj6mInKpVk5yl6JbkluRjF0VZHCxFbrZ300BaXFpka4AAAJF7NcpxlSnhpO0qcnOCe+MvaS6Su/8iOi/D15UpRnCTjKLvGUdTTIaui6hWdKakT6DhMg5+QnanikqctSU4rwv7Ufd8vyO2pVYzipwkpRkrxcWmmuKaKGmszu0q0KqvFnqACC0A1GUM4cJh795WjpL3Y+OV+Fo7PM0P/kTC6Vu7qaF7aXhv+H/ANk7LZTPEUoO0pI7UGPhMTCtCNSnJShNXi1vRkEFydwAAAAAAAAAcR2g5Z0IRwsH4qivUtujuXm16LmdXlLHQw9Kdab8MFd8W9iiubdl5kL47Fzr1KlWbvOcnJ8uEVySsvIzhG7uaOOr7ENhZv0/uRji4BecY2GAy1icP/pVZxX0b6UfwvUb+ln9ikrOnSk+LU031s0jkAYuKeZbCvUgrRk0bfK+ceJxXhnPRh9GHhj58fM04KEpWK5SlJ3k7sAAGIZaXFGAUDAYBQBlGCAbLJOXcThH/Km1F7YS8UH5P4mtDBKk4u6dmdk+0PFWt3VFPjafrtNDlHOLF4i6qVp6L92Pgj6LaaooyFFItniKs1aUn94BlCpQyKDuuzfLehOWEm/DNuVG+6fvQ80r9U+JJZ8+U6koSjOLcZQkpRa2xad015k25uZWjjKEKytf2aiXuzW1dN65NFM46nY6Pr7UeremXD+G2ABWdIAAAAGDlbEOlQrVYq8qdKpOPWMW1flqAbtvOD7Qcs95UWFg/DSelUt707ao+Sfq3wONEpOTcpNuUm3Jva29bbKGylZWPN1arqyc3qVBQAwKlAUAKlGLnb5n5qqSjicTG6dpUoSWprdOS4cFv2shuxZSpSqy2Y/8NXm/mnWxSjOb7mi9ak1ec19WPD6z1dTSZUoxp1q1ON9GnUnCN3dtRk0r89RNxCecL/q8V9/W/WzCMm2buIwsKVNWzvnyMMFsZFxYc5qwAAIKJXa6o63ODMmpRTqYdutTWvRt/Mgui9pdNfI5KO1dV8SeTCcmrG9g6EK0ZKXhbzIFuUJJzvzUVZSxGGilVV5ThFWVXi0t0vj1I2Moyua9ehKjK0uT7wUZUoSUFGAAAzpcxst/JcQoTdqVdxhO+yEvcn6uz5Pkc0UYavuMqc3TkpRzR9DA0WZ2MnXwdCpPXK04N8dCcoJ9bRXnc3prHpYSUoqS1AABkDznBSTjJJpppp6009qZ6AAifOvNaeEbqUk54dvbtlRv7s+MeEvJ8XzJPU4KSaaTTTTTV009qaI1zuzRdDSr4eLdHW6kFrdLnHjD8102Wxnozk4rB7P508tV3cPDw04ZceACw5wAKfn+5JFzpMzMiLFVXOor0aNnJPZOfuw6b35LeSmazN7JqwuHp0ra9HSqc5y1v02dEjZmvJ3Z6DC0eqp21ef3wBCWcPzvFff1v1sm0hHOH53ivv6362TDMqx3YXH2ZgouiyxFS05MkehQJgkqYjtXVfEnkgWO1dV8SeiupodToz9+XuCNu0HISpTWLpxtCpK1ZJaoVHsn0lv59SSDHyhg44inUoz9mpBxfK+yS5p2fkYRdnc3q9FVYOL5cfu4gy4K16M6U505q04TlCfWLs7ctRQvPOyi095QAAgob7NjNqrj5X1woRdqk7beMI32y/Jb9yeTmlmnPGtVaulDDRet7JVWtsYcuMvJa72ljDYeFKMadOKjCKSjGKskjCU7bkdDCYPb/OeXr/PUtweFhRhClTWjCEVGK4Jc95kgFJ2QAAAAAAAACIM9MlRwuJagtGnVjpwS2Ru2pRXJNXtuTSNAdv2oe3hfsVfjA4YvjkeexUVGtJLv9VcuNrmthe+xmHg1dd46kukE5a/wpeZqDq+zqF8VJ/RoTa9Yr92TJ2RGHjtVYrxRJoANc9ECEc4fneK+/rfrZNxCGcPzvFff1v1szhmaWO7C4+zMFFS1FS05LKouuWoqSYNXKx2rqviTyQNF611XxJ5K6mh0ujP35e4ABUdQibtDwnd4yUkrKtThPz1wl+hPzOaizuu1SHiwkuMcRF+Tg1+pnBovhkcLFxSqyX3JM9DaZt5N+V4mlRd9CUnKdtXgitJq+69rX5mpizruzb54/uavxiTLcimhBSqxi+8lSlTjCMYxSjGKUYpKySWpJLcj1ANc9GAAAAAAAAAAAARx2o+3hfsVfjA4Y6ntByjGtidCLuqENBtbNJu8vTUuqZyxfDI8/i2nXk19srA6zs4nbEzX0qEkuqlB/szkzc5n4rusbh23ZSlKEv8AOLiv+TiTJXRGGls1ovx9dxL4ANc9CDS5WzXwmKvKpTUJy1udP+XNvi7apPqmboC5jKKkrNXIzypmBiIXlh5xrx+jK1OfTX4Zeq6HJYrDVKUtCpTnTmvdnFp9VfauZPJ44rC060dCrCFSHCcU11V9jM1O2Zp1MDGW+Dt5r5IKo05TkoQjKc3sjCLlJ9EtZ1OS8xcVVtKq44eP1vHL8CerzaJIwGT6OHjo0acKa36EVd9XtfmZRLm9DGn0fFdt38vvkc/krNHCYez7vvZLXpVfFZ8o+yvS5vwDBu5vQhGCtFWAAIMiPO1SfiwceCxEn5uml8GcEjqu0jFaeLVNO6o06cHylJub/KUfQ5UvjuRw8W71ZP7lYqdd2aP+sf3NX4xORN1mhlKOGxdKpJ2g3KNRvYozVtJ8k9F+RMluKqElGrFvvJuBQqa56EAAAAAAAAAHCZ3Z4qnpYfDSTnrjUqLWocYx4y57vhh5354aWlh8LK0fZqVF731Y8ue/pt4UthDVnLxeN/Sm+L+Pkq2CgLDlAJtNOLs000+DWtMFCQTbkbKCxVClWVvHBaaXuzWqcfKSZmkZ5g5cVCo8PUdqdaS7tvZCpsXk1ZdUuJJhrSVmeiw9ZVaalrrxAAILwAUAAAAAAAB5YrEQpU51KjtCEJTm+Cirs9SPe0jLy1YKnLfGeIa3b4U/hJ/48WSlcrq1FTg5HD47Fyr1alaftVJym1ttd6o9ErLyPAoipsI4Em295UAArO6zOzy7rRw+KlenqjTqPW4cIy4x57umyTIyTSaaaaTTWtNcj55OvzQzwlhXGjXbnh27Re2VHmuMeXpzrnDVHQwuN2fwqZaPu4+Hjp6S0DzpVIzipRalGSUotO6aetNHoVHXAAABr8tRnLD14076cqNRQttcnF2S5mwAIaufPqB1OfuRfk9fvYK1LENy1bIT2zj5+0ur4HLGyndXPNVKbpycXoAADAAAAoySczc6VWUcNiJWqpKNOcn/AKq3Rb+l8epGxRkSjcvoV5UpXRPhQjfN7PmdJRp4tSqU1ZRqLXUivrr31z29SQ8LiadWMalOSnGSjJNcGrrVu1FDi0dylXhVV4vlqeoKgguKAqACgLak4wTlKSjFbXJ2RH+cPaAvFTwSd9adWatb7uD+MvR7SUrldSpGmryN3nfnVDBxdOm1PEzXhW1Uk/fnz4R39CJJSlJuUm5Sk3KTk7uTbu23vdxKUpNyk3KUm5SlJuTk3tbb2sFyVjkV67qO7yCLi0uMjVKAAGJUA3eaORXjcRCLX8qFqlZ/VT1R6yerpd7g3YmEHOSis2SbmNCawOHU73am4326EpycP+LTXJo6EtjFJJJWS1JLVYuNZnpIR2YqPduAABkAAAazLuS44uhUoysnJXhL6E1rjL128m0QliKMqc5wmnGcZShNPc07NH0ARz2k5Es44ymtT0ade3HZCo/yi/8AEspys7HPx9Haj1izWfD+HBAoC04xUF1GnKpJQpwlOT2RhFyk/Jazc080coySksNOz2aVSlB/hlNNeYujOFOc+ym+CNIDJx+Tq2Hlo1qVSm3s01ql9mS1S8mYoMWmnZhkvZMwunhsPJNxmqFK0otp+ytV1uIhZNmQl/S4b7il+lGFQ6XRnalyMNYyvTdm1K3046/VWL1lia204vpNr9jY4jDKa5rY/wBjWSoWdmtZSdYveWJ7qS85t/8AU8amUq0tmjD7Mbv1lf4F3clFSAMKpCU/FOUpPXrk27dOBEaJr7vU+jIViW09Tn499nn7FyAR74PCVK0+7pU51J/RhFtpcXbYubLMjmb27I8C43sszcpJX+Sytt1VaDfop3NNisLUoy0KtOpTlwnGUW+l9pCaYnTnBXkmuKPEuLSpkVD/AO1E05nZE+RYeMZL+bUtOs+Da1Q6RWrrd7zhuzrIff1vlFRXp4dpxvsnU2xX+PtddElopnLQ62AoWXWPXIAArOkAAAAAADHxWHhVhKnUSlCcXGSe9MyAARvX7N56b7vEx0L6tOm3OK4OztJ89RuMnZgYSnZ1XOvL6zdOP4Y6/JtnYAyc5PU1o4ShF3UTGwmDpUY6NKnCnHhCKivyMkAxNkx8VhadaDp1IRnB7YySkn67zgMvdn8lepg5XW10qkta5Qm9vSXqSOCU2imrQhVVpL5PnytSlCUoTjKEotqUZJxcXwaZNWQfmuG+4pfpRou0XIqq0XiYxSqUdHSaXtQbtZ/Zbvfhc3uQfmuG+4o/pRnJ3SNXC0HRqyj4KxsDyrUlNc9zPUFZ0DWyhbUymiZ9SmpdTG0LAHi46n0ZB0FdpJNtuyS1tt7ElvZO0o6n0ZxXZhkOEtPGVIpuM3ToJr2Wvbn11pLh4iyDsmaeKpupOMV4+xjZv9n9Wrapim6EHZqEbd7L7W6C9XyRI+TMm0cNBU6FONOO+2tt8ZN65PmzOBi5Nl9KhCn2Vz1+8AeOIw8KkXCpCE4vbGcVJPyZ7AxLTkso5hYKrdwjKhJ76cvDf7ErpLkrGg/8Z1NK3yqn3d9vdS0rdNK1/MkwGSk0a88LRm7uPt6GBkjJtPCUoUKSajBbXrcm9blJ8WzPAMS9JJWQAAJAAAAAAAAAAAAAAAAAAMPKWH76jVpf7lOpDppRa/cwsgr+lw19T7ilfl4UbkxKdNQSgtkdS5LgDG2+5cAAZAtnC5cADGnHU+jMLMrCdzgcNHfKn3rvtvVbqa/xJeRtJxumuTR70qajGMVqUYxiuSSsib7rEbN5X+6fB6AAgkAAAAAAAAAAAAAAAAAAAAAAAAAAAAAAGLUei3dOz1ppN+TtsMoAGB8qp/TQ+VU/pozwAYHyqn9ND5XT+mvzM8AGHGenqjdre7NJLq9rMwAAAAAAAAAAAAAAAAAAAAAAAAAAAAAAAAAAAAAAAAAAAAAAAAAAAAAAAAAAAAAAAAA//9k=;" parent="v-qFhbS9O7U46pDk4-8g-160" vertex="1">
          <mxGeometry x="173" y="311.48" width="38.52" height="38.52" as="geometry" />
        </mxCell>
        <mxCell id="v-qFhbS9O7U46pDk4-8g-141" value="" style="edgeStyle=orthogonalEdgeStyle;rounded=0;orthogonalLoop=1;jettySize=auto;html=1;" parent="v-qFhbS9O7U46pDk4-8g-160" source="v-qFhbS9O7U46pDk4-8g-132" target="v-qFhbS9O7U46pDk4-8g-136" edge="1">
          <mxGeometry relative="1" as="geometry" />
        </mxCell>
        <mxCell id="v-qFhbS9O7U46pDk4-8g-137" value="School admin" style="shape=image;verticalLabelPosition=bottom;labelBackgroundColor=default;verticalAlign=top;aspect=fixed;imageAspect=0;image=data:image/png,iVBORw0KGgoAAAANSUhEUgAAASgAAACrCAMAAADiivHpAAAApVBMVEXG2vv////u7u5fl/bt7e339/f09PTx8fH6+vr8/Pz///3G2/tfl/VZk/bD2fvw7+2kwvno6/DK3vxWkvfT4PXD2/vJ3vpelviqyPhXlPP3+v7a5/zR3/ju9Pzp8PzE1/yNtPdnnPVxovi60vuGrvfk7v7E0/Ha5PPk6PHo8P3Z5Pydv/iSt/iHsfnR3fmUuvd3pvZwofm0zfqdwPb49u9wo/S1y/CWujvKAAAQ9klEQVR4nO1dC5viqs+vtd6gpUq1HbUzHS/z1925rjuz3/+jvdBWp9grAa27581znrOHowvhZwgJIcHoxNQzOVmjuDGy4sYw+Shp9JJG/DWznzQGcWOQNPrJR0J3SWNY13cfIdRZ3O920/CNYmwwwtT3w+l0d7/gn/UtV6I7zaym3RltA+Wak/0yNAiJCCF4ZsQ4GRjPMDHY/yXECJf7iQzu/xRQvDvU6biTXYg5GLMYHoMkMCWEj/9iIBrhbuJy4eqg/xpQCI0elgwDoyFFEVnejxhUPeuvAcpSHt0cjh5CBhI2cD1EJ2KiFz6Mhu0C1XB0SwDKyo5uZUe3sqOLfbuW6+6nBjGkQEq/zMCd7ples2R/0zyrVj2rAlC9hPoxKTQa/6Vef4kbL7hCuaK7QQ/EnSyr2YaRB97KAm81kJHGC5V9OFgsjZmUKBVhZSwXA2YxWJasOJezalXCYJpG06VcM7qZHd0sVBP8o8m0ufquFqtw4roXY1WA4epAudpgYhQZHKp/DyjEJWpKItVF901syyRTy427/oeAYmbTLpppQ+kIFt4xwwpdBygrpvQbZtxIvzGIG6fRYzqOHtNx9JiOo8fUy3YX931PCdYnTgmx/oh/H0uUJlaLZp70bRmjmHoDTmbSGJpxY9iJW0mjFzc6ydf6mcZgkDT6mcZ5d6451aWbckSmrHt9rJbNfCRpcMZSKGuZu3slw6mGImPvQliVNTiFmen3C5gKGbK9TveqyxBmSv1GfT2p0dGCRpdDKSFC42OrmwNKZumhH9ElxSklPHvgu98NOcXi6HVOMfuZl1eAiRtVZMmQUmA1BapCR2V3vcEw0f0FjV7yvaTRTxr9fGMgdjd8I9qNpzKs3obDQR/MajkMaXcVdlTeODEljZPJJXe7c5rhCfpmVcHkK7Gjmi5leXMX3V8RJk44Nj7/Ohfm6jgxTRUj9ZcBhR40esDNCBuEbX5/GVAMpyvDFEPFkEJXd4qVPM2Hq5gFOSIMqQsp82FMyfnwIGkMk0Yv0+j3Rvy/RwWN/ijztbTRY+vu2hoqpegh4VvgTmS1l28MSmFIJzsUDc5ORkIbWuZW0UK9uh7/plmU7H1VrIKiMOnXzfw34L7eop11d6QFas5qq07xqFWY2ObHA8q3AFSNU4xoewuPUzR7Q5eTqBqnuMEuehwd/ZxJBoE1E8bkp4REQXSUOcrgmpobI1MOKPTj6oZmnsgPJCdR4sxHBTPXbkft2113CeForz24AFrKZeYu6ljGtc5VKolQC1WzKqtTtLowqIPCm8CJIRUipAmoS/h66GHWrgn1TeSHLom6AFBo1DY834QTu/NqTrEpc8KJwlvQ5CnFNoKKUyzsadbxIpk69Xs9xSOD+Eowpox8SpWBwuRB29wYGRmBsU5OsQC8mQE+aZwkNAu8a1qG0hnUDPuU3D2/vG63ry/PdxH1FdUdditlpGDmZ/KXnblGX89Vu2BA6eFxNXccZ97tzueBE6wfD1hFsDCZujfpFFtwk5zMKHlfOUHQzVLgrN4NqnAJhkzcG3SK3TewCUV8492ed+3uOQVB8K7iN4ZXB6p2F0X9/Qw2Jcz0993K6do5nJh82V1ndeeDhSqaqF+JPz89yCvzUQpUdhcVjImshkQ9HzgZBtWrl5Olb7K9V3DX+E1OmVfMHG5HmYJxYoJPf/Fs7a3KcQpse/4LfOGa3Js5Vps6xWd2VJV6lpBQ9w02F4yJ3V0F5UDxBRmsIqhQvbmKOkW3UzyBCRQ2CNPitRR0oaZstHdzWqdNX88NgQoXr4L8ZldAK+jqC033loACCRQmxP9oIE+xTH0A7fTZRJNE5ZW5Ka3MXXcKmoRP3+cV6kkg7x1mpc+mWYmqUebZPdI8U+ZpODQbG+1nw6YVjd53A+bk4Y3jNFp4XW4lbOSy+050xurZZMsb4mRl7SjzHHi+i6IfMFVO103liQEVfPkgoPi9DR12VPr1/IYv4eshHwQUvnMa48RF6g4kUMTnQJUrXzOrfAtg0AcUgobQacMdLwWq+wsWWSWLm3GKn0AToHdegR9cQc4BZHaSpxuRqA6iEIHy3z5kBIoDtQVtfJjqBKqpMs/totYALUACNTNkNFSCFMyUYmsPdsIpKHPhOnbB3ez669juErbnSanymKDqfJeyOiq4M19+K12c7FnydUMJFSxzF+aw0sfmtsGRXkHnnZi66td0NLgwQH+YfskDtQYeDN+Grwe8lkEbenlZCmC2OdmPUPtAoSnIisKk6lizhJwNTJ1PkW6grPw3aoGiMKAOnpxxkAIFM22zEgVLGzPkdH/BrreARamY/wIA6gA0EHqlmWK1uVjHXe8oMEA7yoXeHIMBdQeTKLJv3ykGHkVBgYIdSpGdW6p8zaxOKYBBG1AhEKgDYNdzDsBtL2wfKBN4lo03EKA2wMFo+XZ+QaAEA3YCY50xDzEPoL8KmegCKrv7y1Qkg98CphVRz2Kyg5Xvww6dozjEIBTGks2FKT8srj1Aj//SAzhC/Crtwsxh5ywGPw+WOSYvPDPPL6bCfKky4NETkHWDPksrKWcMDq0/8aJAsLQxPS4MAp6x8EvzskrKdsA3+sgSoXZ9PfQGvmbnr2Ul6gt+YyZEnZaBggVgDL5ljyXXnvMbfqeMXhKoRk4x+JYlA9iWU+e2wuU7jIp1lH6JyjaySUhg3rFB36VEygEG1RPiyY5KuTBHgYEGFxR4x0b+OmIVqaTZ4InZrlMMNswNngIlE1/w7kBRsSNNyqp2mlmdUgCDLqBU7pbP6EezIwT2JecDvuUZ8U3qvxgog99LbEi2Wn5bK0BZ2oAy6KHhxjcHnht8A1W5S12+TLciUJjeNTg6t1UVVCxRllqBCMWkI9WaGYSOaxW6HTiqOBnkXjW7KreY5Mp0w+4dZMm/qxEpZpYeqJIm50AtZJxi6xwGdRcGGIPJEt6sKoSKidN6owoTA2rYslO8UJ4C0+j4cV56AyiYP2J1nAw8ahko9TosGDNnZvPFz1wKDPX514HqKMzROlBwX08g37/7cM49v2DufNz5miq9dFSBErw3QJlu8DGLQIRgunn55Z1yG4PAcdYvG7bZ6akPQDmvSpU0UhzMbxlJi5Ic+zMrgXffdEwjJkyNzfjx42tlr1a/Pl7GG6pqE2QoTh6SNDiFmata5q7eDH6eoo6TP7FGmAxj6rqWCJQlzDyvUzT7etCIejHhODmBA6T8JIpIZGe27BS7O60TuhTNdoClpzdSfBNlkGop2puagGroFItA8Y8UveLrEI6EkHqzG3JnQNUlT9VGV2+kuk8lYQpIGxMnq/p2FULqVVQuTzisvZpo5WAwMzBoiOvBQ8VXJF4/v9OuC4MQ+JbGFSmuSt0yUBpOpC5PPBOtZaDY6Ib2t5b000UrkjV8uwqFt1LWrpwSXa5WprvgGrnwikf9dWxYWmOOsHF6o5iLKMbxK6F6ziaeGr7iUTFz5berrIEeJcV8YF6yDcePOBOGE/eLsVKlrRORhWj3mBk1csUy3UpFlNNXm6kRHcbvjx9f65XNabX69bV9fB8fSHyQYCQyBh4EiUkbgvLNonbhVNkleAK8dhSNDs+vX6u555xVJONnd46z+np9PhAOluyDvSciy9tIvkb3wPIQlJ/UbX91vblTGi+27S5DK1i/jjfgGAO5b/vtqnR0JPtL86/7lIy3K4ZBZab66bPA8Vav44jSmSErWNg4T74GOcUKu94g/UvSXgz2/c3L2mlcl+UE1nz9vqFY8t0L5r+IGx1s1yu3o5qX6ZY7k6I8jFAjSWXLsDt3fr1s5Ar/8NSqWynT3XQT95liIuO1I52fLgrWekwkzAZ8tphaLNPt/mwmUjwm9diVXXF5yeo63cdNU6h42dLbSL7ml38a7XvYP3wETlcVp0SqnI8DxY30+uSGgGoS3aP+5qPcDIBg9XHwa/U6JlRT6TYdytxtEGKg0RaiwKuQ6jqvs9oFONu7lva3q4oKd9UeoMfHzQhXOhgR9p81QhSTzXbBwHmOw6QVY/vNMsXqYBgW3zM3s8A3KtP9o/Iuqr9ZK210ZRTY3jqqFCr+8MkZq+2W6a60zulYsgBSU4oNq+priwjltY6gfM2s8i2AQTdQT6Ub34y+X0ScjuS9UFryeC0hT3lW2y3TjUrje9ivrJmsToFTWnUZGzdYpntXVKYbM3naenIpL/I035Y4NWSn/jJQfUWyImVuFpaXTEYv3Pd846WqtrQmcl6KNTo2C1kFKfNyO6phcOEEa2GAr9GFe3XyCktskPu2367KL1Rm7qIC8xzP5l2tVmYxsRHyhhw23jqomNV0qTTRKfrfrkKdRZSTKfp6FYFii+81L1JkeJtPMhVcQ8ARoFINjOa5zID4wsEtAsVrbomszozLWlACUC9nOM1wRytQ5cpc6s2F5O2qsxQiLF9WBE6rs1+J3Ku9XXVeplsx6Uik4VS0kCONxyo1FNhiZH/2c6h1ag2Sr8ud4rxxYtIsUvhwWZtcIO+srFvt+2YFMx+KM8+KnOZ3il1h8eH6XDx95AhlX8miqfI1s8q3AIbLAGWip2xA96pAZSrcYOYM3wBQlQVz0c+MrrguUN/anEwln9+9nlN8kqjOKPOubFtA0cs9EV6hzLMqTTAmSjQkz3XEbQI1Mxb8IWCAMhdmflamuw74QRb4gtosxySkTC7Wd6ShJYmKXxcaNWH1tFQGWRiEmQu+nlKZ7txCdXekNaAwU+Rx3kszVpvvUnrfKU5HP0WOW5CoWbSr+U1vwNf7/plS97gFoMiy51p/C1Bs9ESmrg8UWSJZVmWAEpJAYPetzhY+ipG6OlBk2akFqjwXprJMdzYcOkoDqqN8IwmbDpKv9QaZ6OpwkA2onhoojK7swjDLnEzPYr8jIRBcwmpmsgUwAN+uam6cuOHsykBRMuXBj/LbBK2W6S43JtzpdZfe7yjOsIaw2oJTnO3OffrtXCiWXgTU8w8XzGq7QFnopyf1jpcSeUukwGrLQKEn+0qLz1k9IBVWGwNVoNKKjpbrlHkuXDr6kHzyTJ4C9o+3HSJUezVMNlIsKHPhMnVBElK/4Dq2+HZV5dMY/c+xd/mDc2/8Ofhs8MxWOau1M1ct012/UD/DbtF78tooYMsu/DRNS53V4rOBy7ow2dGHjxeMMdi29zj61MNqG75ednSEaPdiOt3p+ggN/g2gOggt3r1A+y0pmy0774VrcX2sgoACO8X50RFafulefza/6rpEvCabTlY7JU5xNl+qkzY6caNvxq2k0Ysb5ijXGI2SxjDTSLcSoTvU/9PVC1Uw7/7pM5wqWR3mWT1udKWsdtL0KwGGyznF58YJW393c22XW+yuN79bqJh8t+MUn5m7TJeg+3EAeF8oT2zRzccL1uFlWL26CyMC1eGqavHb9tQyPdieEHg2h6nzbwIV942QO/mz9hTEiq05b/1n4qJLs3rpkHoNUCPXdN3w0YH6NYHnvIQu6+Tiv6nmMt3ntYeF7tLRc327bj/aenwJSrzjYXdtx3G2Ud91Ab9pnlXg21UJCY1e+UeQxlnrc/9n63gSV2E5Sn8mw8+rs5qemecXk1RFMukCJce++RK0wvHa83gaX3CqE5z8EbdsO0414wWoPe/rOZy4TJiq3pfSxmrBUrmKC1PQdzoztg2G423Xc+bsHwYK29ESxOKdMeDFNDyvu70L+SbXKqutAmUxoDh97sM/z9tfgXdG3fX2+fA2cT/5l459/zeB4oR6lsuJYXH/tAz/F1O4fLrnxkS82uLu0H8eqGPfiWUUY+OmZpLY3f8DVaBwRwXdtQrU/wFJ1TP6ZJ7L9gAAAABJRU5ErkJggg==;" parent="v-qFhbS9O7U46pDk4-8g-160" vertex="1">
          <mxGeometry x="153" y="430.41" width="33.91" height="19.59" as="geometry" />
        </mxCell>
        <mxCell id="v-qFhbS9O7U46pDk4-8g-140" value="" style="edgeStyle=orthogonalEdgeStyle;rounded=0;orthogonalLoop=1;jettySize=auto;html=1;entryX=1;entryY=0.5;entryDx=0;entryDy=0;exitX=0.5;exitY=1;exitDx=0;exitDy=0;" parent="v-qFhbS9O7U46pDk4-8g-160" source="v-qFhbS9O7U46pDk4-8g-136" target="v-qFhbS9O7U46pDk4-8g-137" edge="1">
          <mxGeometry relative="1" as="geometry">
            <mxPoint x="1001.9300000000001" y="448.6136960240963" as="targetPoint" />
          </mxGeometry>
        </mxCell>
        <mxCell id="v-qFhbS9O7U46pDk4-8g-138" value="" style="edgeStyle=orthogonalEdgeStyle;rounded=0;orthogonalLoop=1;jettySize=auto;html=1;" parent="v-qFhbS9O7U46pDk4-8g-160" source="v-qFhbS9O7U46pDk4-8g-137" target="v-qFhbS9O7U46pDk4-8g-132" edge="1">
          <mxGeometry relative="1" as="geometry" />
        </mxCell>
        <mxCell id="upSLq7r1C17GMmXVNGqP-13" value="" style="edgeStyle=orthogonalEdgeStyle;rounded=0;orthogonalLoop=1;jettySize=auto;html=1;" edge="1" parent="v-qFhbS9O7U46pDk4-8g-160" source="v-qFhbS9O7U46pDk4-8g-134" target="v-qFhbS9O7U46pDk4-8g-148">
          <mxGeometry relative="1" as="geometry" />
        </mxCell>
        <mxCell id="v-qFhbS9O7U46pDk4-8g-134" value="Andere" style="shape=image;verticalLabelPosition=bottom;labelBackgroundColor=default;verticalAlign=top;aspect=fixed;imageAspect=0;image=https://seeklogo.com/images/G/google-groups-logo-F42B19A01D-seeklogo.com.png;" parent="v-qFhbS9O7U46pDk4-8g-160" vertex="1">
          <mxGeometry x="34.93" y="600.31" width="29.69" height="29.69" as="geometry" />
        </mxCell>
        <mxCell id="v-qFhbS9O7U46pDk4-8g-148" value="&lt;ul&gt;&lt;li&gt;School-personeel&lt;/li&gt;&lt;li&gt;School-leerlingen&lt;/li&gt;&lt;li&gt;School-boekhouding&lt;/li&gt;&lt;li&gt;School-leerlingensecretariaat&lt;/li&gt;&lt;li&gt;School-zorg&lt;/li&gt;&lt;li&gt;School-beleidsteam&lt;/li&gt;&lt;/ul&gt;" style="shape=partialRectangle;whiteSpace=wrap;html=1;top=0;bottom=0;fillColor=none;align=left;movable=1;resizable=1;rotatable=1;deletable=1;editable=1;locked=0;connectable=1;" parent="v-qFhbS9O7U46pDk4-8g-160" vertex="1">
          <mxGeometry x="143" y="566.9168489636601" width="190" height="123.42624903614458" as="geometry" />
        </mxCell>
        <mxCell id="v-qFhbS9O7U46pDk4-8g-149" value="&lt;font style=&quot;font-size: 27px;&quot;&gt;SCHOOL OU&lt;/font&gt;" style="text;html=1;strokeColor=none;fillColor=none;align=center;verticalAlign=middle;whiteSpace=wrap;rounded=0;" parent="upSLq7r1C17GMmXVNGqP-40" vertex="1">
          <mxGeometry x="133" width="220.25" height="27.872793724966627" as="geometry" />
        </mxCell>
        <mxCell id="v-qFhbS9O7U46pDk4-8g-162" value="&lt;font style=&quot;font-size: 27px;&quot;&gt;Regio OU&lt;/font&gt;" style="text;html=1;strokeColor=none;fillColor=none;align=center;verticalAlign=middle;whiteSpace=wrap;rounded=0;" parent="upSLq7r1C17GMmXVNGqP-35" vertex="1">
          <mxGeometry x="164.87999999999988" width="220.25" height="26.071428571428573" as="geometry" />
        </mxCell>
      </root>
    </mxGraphModel>
  </diagram>
</mxfile>
